<?xml version="1.0" encoding="UTF-8" standalone="no"?>
<!-- Created with Inkscape (http://www.inkscape.org/) -->

<svg
   width="350"
   height="155"
   viewBox="0 0 92.604164 41.010417"
   version="1.1"
   id="svg5"
   inkscape:version="1.2.2 (b0a8486541, 2022-12-01)"
   sodipodi:docname="card.svg"
   inkscape:export-filename="../Source/Images/card.png"
   inkscape:export-xdpi="96"
   inkscape:export-ydpi="96"
   xmlns:inkscape="http://www.inkscape.org/namespaces/inkscape"
   xmlns:sodipodi="http://sodipodi.sourceforge.net/DTD/sodipodi-0.dtd"
   xmlns="http://www.w3.org/2000/svg"
   xmlns:svg="http://www.w3.org/2000/svg"
   xmlns:rdf="http://www.w3.org/1999/02/22-rdf-syntax-ns#"
   xmlns:cc="http://creativecommons.org/ns#">
  <sodipodi:namedview
     id="namedview7"
     pagecolor="#ffffff"
     bordercolor="#666666"
     borderopacity="1.0"
     inkscape:showpageshadow="2"
     inkscape:pageopacity="0.0"
     inkscape:pagecheckerboard="0"
     inkscape:deskcolor="#d1d1d1"
     inkscape:document-units="px"
     showgrid="false"
     showguides="false"
     inkscape:zoom="2.7812867"
     inkscape:cx="170.42472"
     inkscape:cy="77.661897"
     inkscape:window-width="1860"
     inkscape:window-height="1051"
     inkscape:window-x="0"
     inkscape:window-y="0"
     inkscape:window-maximized="1"
     inkscape:current-layer="layer1">
    <sodipodi:guide
       position="0,41.010416"
       orientation="120,0"
       id="guide236"
       inkscape:locked="false" />
    <sodipodi:guide
       position="0,9.2604161"
       orientation="0,199.99999"
       id="guide238"
       inkscape:locked="false" />
    <sodipodi:guide
       position="52.916664,9.2604161"
       orientation="-120,0"
       id="guide240"
       inkscape:locked="false" />
    <sodipodi:guide
       position="52.916664,41.010416"
       orientation="0,-199.99999"
       id="guide242"
       inkscape:locked="false" />
  </sodipodi:namedview>
  <defs
     id="defs2" />
  <g
     inkscape:label="Layer 1"
     inkscape:groupmode="layer"
     id="layer1">
    <text
       xml:space="preserve"
       style="font-style:normal;font-weight:normal;font-size:10.5833px;line-height:1.25;font-family:sans-serif;letter-spacing:0px;word-spacing:0px;fill:#000000;fill-opacity:1;stroke:none;stroke-width:0.264583"
       x="10.359302"
       y="11.831933"
       id="text529"><tspan
         sodipodi:role="line"
         id="tspan527"
         style="stroke-width:0.264583"
         x="10.359302"
         y="11.831933">Mandala</tspan></text>
    <path
       sodipodi:type="star"
       style="fill:#fdfdff;stroke:#000000;stroke-width:0.529167"
       id="path633"
       inkscape:flatsided="false"
       sodipodi:sides="18"
       sodipodi:cx="68.641449"
       sodipodi:cy="14.438486"
       sodipodi:r1="4.9192228"
       sodipodi:r2="1.2298056"
       sodipodi:arg1="0.3659535"
       sodipodi:arg2="0.54048643"
       inkscape:rounded="0.01"
       inkscape:randomized="0"
       d="m 73.234936,16.19878 c -0.01329,0.03468 -3.519868,-1.159342 -3.53898,-1.127494 -0.01911,0.03185 2.684254,2.564355 2.659902,2.5924 -0.02435,0.02805 -2.911075,-2.29329 -2.939927,-2.269899 -0.02885,0.02339 1.645313,3.327773 1.612838,3.345799 -0.03248,0.01803 -1.951165,-3.150635 -1.986277,-3.138523 -0.03511,0.01211 0.407923,3.689815 0.371241,3.695646 -0.03668,0.0058 -0.755914,-3.627965 -0.793052,-3.628593 -0.03714,-6.27e-4 -0.878668,3.60681 -0.915132,3.599743 -0.03646,-0.0071 0.53051,-3.66771 0.495827,-3.681001 -0.03468,-0.01329 -2.05928,3.088769 -2.091129,3.069657 -0.03185,-0.01911 1.752948,-3.265075 1.724902,-3.289427 -0.02805,-0.02435 -2.991512,2.198179 -3.014902,2.169327 -0.02339,-0.02885 2.763953,-2.468624 2.745927,-2.501099 -0.01803,-0.03247 -3.562923,1.042455 -3.575035,1.007343 -0.01211,-0.03511 3.441585,-1.37442 3.435754,-1.411102 -0.0058,-0.03668 -3.704593,-0.239004 -3.703965,-0.276141 6.27e-4,-0.03714 3.704111,-0.114441 3.711178,-0.150905 0.0071,-0.03646 -3.399435,-1.491636 -3.386144,-1.526319 0.01329,-0.03468 3.519868,1.159342 3.53898,1.127494 0.01911,-0.03185 -2.684254,-2.564354 -2.659903,-2.5924 0.02435,-0.02805 2.911076,2.29329 2.939928,2.2699 0.02885,-0.02339 -1.645313,-3.327774 -1.612838,-3.345799 0.03247,-0.01803 1.951165,3.150634 1.986277,3.138522 0.03511,-0.01211 -0.407923,-3.6898148 -0.371241,-3.6956459 0.03668,-0.00583 0.755914,3.6279659 0.793052,3.6285929 0.03714,6.27e-4 0.878668,-3.6068094 0.915132,-3.5997429 0.03646,0.00707 -0.53051,3.6677109 -0.495827,3.6810019 0.03468,0.01329 2.05928,-3.08877 2.091129,-3.069658 0.03185,0.01911 -1.752948,3.265075 -1.724902,3.289427 0.02804,0.02435 2.991512,-2.198179 3.014902,-2.169327 0.02339,0.02885 -2.763953,2.468624 -2.745927,2.501099 0.01802,0.03248 3.562923,-1.042455 3.575035,-1.007343 0.01211,0.03511 -3.441586,1.37442 -3.435754,1.411102 0.0058,0.03668 3.704593,0.239004 3.703965,0.276141 -6.27e-4,0.03714 -3.704111,0.114441 -3.711178,0.150905 -0.0071,0.03646 3.399435,1.491636 3.386144,1.526319 z"
       transform="translate(-2.9924946,-3.5786008)" />
    <path
       sodipodi:type="spiral"
       style="fill:none;fill-rule:evenodd;stroke:#000000;stroke-width:0.264583"
       id="path688"
       sodipodi:cx="41.197872"
       sodipodi:cy="22.962549"
       sodipodi:expansion="1.02"
       sodipodi:revolution="13.2"
       sodipodi:radius="8.2918301"
       sodipodi:argument="-82.74939"
       sodipodi:t0="0"
       d="m 41.197872,22.962549 c 0.04175,-0.07592 0.123449,0.01991 0.127111,0.06991 0.01023,0.139701 -0.151912,0.210222 -0.268875,0.187864 -0.211476,-0.04042 -0.305072,-0.280785 -0.248039,-0.472147 0.08432,-0.282929 0.412438,-0.402608 0.677289,-0.308359 0.355005,0.12633 0.501477,0.545461 0.368857,0.883701 -0.167649,0.42758 -0.679376,0.601175 -1.091083,0.429524 -0.500533,-0.208683 -0.701455,-0.813949 -0.490345,-1.299252 0.2496,-0.573783 0.949048,-0.802178 1.508084,-0.551304 0.647278,0.290474 0.903258,1.084583 0.612389,1.717488 -0.331346,0.72098 -1.220491,1.004637 -1.927396,0.67359 -0.794861,-0.372238 -1.106273,-1.356727 -0.734897,-2.137756 0.413158,-0.868901 1.493254,-1.208133 2.348524,-0.796302 0.943082,0.454114 1.310194,1.630043 0.857798,2.559664 -0.495109,1.017393 -1.767072,1.412437 -2.771148,0.91938 -1.091821,-0.536145 -1.514845,-1.904321 -0.981041,-2.982949 0.577221,-1.166358 2.041774,-1.617406 3.195047,-1.042778 1.240995,0.618337 1.720106,2.179416 1.104584,3.407421 -0.659492,1.315728 -2.317233,1.82294 -3.620054,1.166459 -1.39055,-0.700686 -1.925897,-2.455218 -1.228398,-3.832934 0.741918,-1.465454 2.59336,-2.02897 4.046046,-1.290397 1.540438,0.783186 2.132152,2.731649 1.352455,4.259379 -0.82449,1.615495 -2.87008,2.235438 -4.472922,1.414567 -1.690625,-0.865828 -2.338824,-3.008644 -1.476733,-4.686664 0.907199,-1.765824 3.147336,-2.442304 4.900598,-1.538951 1.841087,0.948603 2.545873,3.286151 1.601217,5.114716 -0.990038,1.916412 -3.425083,2.649529 -5.32901,1.663531 -1.991796,-1.031503 -2.753267,-3.564127 -1.72589,-5.543473 1.072998,-2.067239 3.70328,-2.857085 5.758099,-1.788293 2.142737,1.114521 2.96098,3.842535 1.850739,5.972881 -1.156071,2.218289 -3.981892,3.064949 -6.187816,1.913227 -2.293891,-1.19765 -3.168988,-4.121346 -1.975753,-6.402897 1.239253,-2.369545 4.260892,-3.273097 6.61812,-2.03832 2.445245,1.280883 3.377271,4.40053 2.100923,6.833481 -1.322538,2.520993 -4.540256,3.481511 -7.048974,2.163562 -2.596788,-1.364216 -3.585814,-4.680066 -2.226238,-7.264596 1.405917,-2.672625 4.81996,-3.690178 7.480345,-2.288948 2.748505,1.447642 3.794599,4.959933 2.351691,7.696215 -1.48939,2.824428 -5.099985,3.89908 -7.912205,2.414468 -2.90039,-1.531159 -4.003615,-5.240114 -2.477276,-8.12831 1.572949,-2.976393 5.380316,-4.108205 8.344528,-2.540115 3.052433,1.614759 4.212849,5.520589 2.602985,8.560855 -1.656591,3.128512 -5.660934,4.317544 -8.77729,2.665885 -3.204627,-1.698443 -4.42229,-5.801347 -2.728814,-8.99383 1.740313,-3.280778 5.941828,-4.527085 9.210472,-2.791771 3.356964,1.782203 4.631928,6.082374 2.854756,9.427214 -1.824111,3.433184 -6.222984,4.736819 -9.644053,2.917768 -3.509439,-1.866038 -4.841756,-6.363656 -2.980807,-9.860989 1.907982,-3.585725 6.50439,-4.946737 10.078017,-3.043872 3.662044,1.949945 5.051763,6.645184 3.106963,10.295139 -1.991924,3.738394 -6.786037,5.156832 -10.512349,3.170078 -3.814775,-2.03392 -5.261944,-6.926947 -3.233219,-10.729648 2.075933,-3.891186 7.067914,-5.367097 10.947033,-3.296383 3.111807,1.661116 4.828652,5.240545 4.210666,8.70831" />
    <path
       sodipodi:type="star"
       style="fill:#fdfdff;stroke:#000000;stroke-width:0.529167"
       id="path726"
       inkscape:flatsided="false"
       sodipodi:sides="16"
       sodipodi:cx="11.385881"
       sodipodi:cy="20.505207"
       sodipodi:r1="2.1590903"
       sodipodi:r2="0.53977257"
       sodipodi:arg1="0"
       sodipodi:arg2="0.19634954"
       inkscape:rounded="0.01"
       inkscape:randomized="0"
       d="m 13.544972,20.505207 c 0,0.01633 -1.626504,0.08929 -1.62969,0.105304 -0.0032,0.01602 1.471588,0.705856 1.465339,0.720944 -0.0062,0.01509 -1.536862,-0.539945 -1.545935,-0.526366 -0.0091,0.01358 1.08945,1.215278 1.077903,1.226825 -0.01155,0.01155 -1.213247,-1.086975 -1.226826,-1.077902 -0.01358,0.0091 0.541454,1.539685 0.526367,1.545934 -0.01509,0.0062 -0.704927,-1.468524 -0.720944,-1.465338 -0.01602,0.0032 -0.08897,1.629689 -0.105305,1.629689 -0.01633,0 -0.08929,-1.626503 -0.105304,-1.629689 -0.01602,-0.0032 -0.705856,1.471588 -0.720944,1.465338 -0.01509,-0.0062 0.539945,-1.536861 0.526367,-1.545934 -0.01358,-0.0091 -1.2152783,1.08945 -1.226826,1.077902 -0.011548,-0.01155 1.086976,-1.213247 1.077903,-1.226825 -0.0091,-0.01358 -1.5396853,0.541454 -1.5459349,0.526366 -0.00625,-0.01509 1.4685239,-0.704926 1.4653379,-0.720944 -0.0032,-0.01602 -1.6296889,-0.08897 -1.6296889,-0.105304 0,-0.01633 1.6265029,-0.08929 1.6296889,-0.105304 0.0032,-0.01602 -1.4715875,-0.705856 -1.4653379,-0.720944 0.00625,-0.01509 1.5368619,0.539945 1.5459349,0.526366 0.0091,-0.01358 -1.0894506,-1.215278 -1.077903,-1.226825 0.011548,-0.01155 1.213247,1.086976 1.226826,1.077903 0.01358,-0.0091 -0.541454,-1.539686 -0.526367,-1.545935 0.01509,-0.0062 0.704927,1.468524 0.720944,1.465338 0.01602,-0.0032 0.08897,-1.629689 0.105304,-1.629689 0.01633,0 0.08929,1.626503 0.105305,1.629689 0.01602,0.0032 0.705856,-1.471588 0.720944,-1.465338 0.01509,0.0062 -0.539946,1.536862 -0.526367,1.545935 0.01358,0.0091 1.215278,-1.089451 1.226826,-1.077903 0.01155,0.01155 -1.086976,1.213247 -1.077903,1.226825 0.0091,0.01358 1.539685,-0.541454 1.545935,-0.526366 0.0062,0.01509 -1.468525,0.704927 -1.465339,0.720944 0.0032,0.01602 1.62969,0.08897 1.62969,0.105304 z"
       transform="matrix(2.154667,0,0,2.2682417,-10.333533,-22.946972)" />
    <text
       xml:space="preserve"
       style="font-weight:bold;font-size:6.35px;line-height:1.25;font-family:sans-serif;-inkscape-font-specification:'sans-serif Bold';letter-spacing:0px;word-spacing:0px;stroke-width:0.264583"
       x="9.0626154"
       y="36.407791"
       id="text730"><tspan
         sodipodi:role="line"
         id="tspan728"
         style="font-size:6.35px;stroke-width:0.264583"
         x="9.0626154"
         y="36.407791">Hypnotize Yourself!</tspan></text>
    <path
       sodipodi:type="star"
       style="fill:#fdfdff;stroke:#000000;stroke-width:0.529167"
       id="path840"
       inkscape:flatsided="false"
       sodipodi:sides="16"
       sodipodi:cx="78.156921"
       sodipodi:cy="23.563793"
       sodipodi:r1="7.518496"
       sodipodi:r2="1.879624"
       sodipodi:arg1="0.6750626"
       sodipodi:arg2="0.87141214"
       inkscape:rounded="0.01"
       inkscape:randomized="0"
       d="m 84.026369,28.262449 c -0.03554,0.0444 -4.615928,-3.296903 -4.659446,-3.260295 -0.04352,0.03661 2.464387,5.121356 2.414564,5.148771 -0.04982,0.02742 -3.002892,-4.81238 -3.057107,-4.795212 -0.05421,0.01717 0.316939,5.674596 0.260417,5.680858 -0.05652,0.0063 -0.932692,-5.595217 -0.98935,-5.600103 -0.05666,-0.0049 -1.87876,5.363931 -1.933377,5.348086 -0.05462,-0.01584 1.279502,-5.526233 1.229026,-5.552428 -0.05047,-0.0262 -3.788435,4.236655 -3.83283,4.201115 -0.04439,-0.03554 3.296903,-4.615929 3.260294,-4.659446 -0.03661,-0.04352 -5.121355,2.464387 -5.148771,2.414563 -0.02742,-0.04982 4.812381,-3.002891 4.795212,-3.057106 -0.01717,-0.05421 -5.674595,0.316939 -5.680857,0.260417 -0.0063,-0.05652 5.595217,-0.932692 5.600102,-0.98935 0.0049,-0.05666 -5.36393,-1.878761 -5.348085,-1.933377 0.01584,-0.05462 5.526232,1.279502 5.552428,1.229026 0.0262,-0.05047 -4.236655,-3.788435 -4.201116,-3.83283 0.03554,-0.0444 4.615929,3.296903 4.659447,3.260294 0.04352,-0.03661 -2.464387,-5.121356 -2.414564,-5.148771 0.04982,-0.02742 3.002892,4.812381 3.057107,4.795212 0.05421,-0.01717 -0.316939,-5.674596 -0.260417,-5.680857 0.05652,-0.0063 0.932692,5.595217 0.98935,5.600102 0.05666,0.0049 1.87876,-5.36393 1.933376,-5.348085 0.05462,0.01585 -1.279501,5.526232 -1.229026,5.552428 0.05048,0.02619 3.788436,-4.236655 3.832831,-4.201116 0.0444,0.03554 -3.296903,4.615929 -3.260294,4.659447 0.03661,0.04352 5.121355,-2.464388 5.14877,-2.414564 0.02742,0.04982 -4.81238,3.002892 -4.795212,3.057107 0.01717,0.05421 5.674596,-0.31694 5.680858,-0.260417 0.0063,0.05652 -5.595217,0.932692 -5.600102,0.98935 -0.0049,0.05666 5.36393,1.87876 5.348085,1.933376 -0.01584,0.05462 -5.526232,-1.279502 -5.552428,-1.229026 -0.0262,0.05048 4.236655,3.788435 4.201115,3.832831 z"
       transform="matrix(0.9606185,0,0,1.0336455,3.1841436,-0.79281445)" />
  </g>
  <metadata
     id="metadata653">
    <rdf:RDF>
      <cc:Work
         rdf:about="">
        <cc:license
           rdf:resource="http://creativecommons.org/licenses/by-sa/4.0/" />
      </cc:Work>
      <cc:License
         rdf:about="http://creativecommons.org/licenses/by-sa/4.0/">
        <cc:permits
           rdf:resource="http://creativecommons.org/ns#Reproduction" />
        <cc:permits
           rdf:resource="http://creativecommons.org/ns#Distribution" />
        <cc:requires
           rdf:resource="http://creativecommons.org/ns#Notice" />
        <cc:requires
           rdf:resource="http://creativecommons.org/ns#Attribution" />
        <cc:permits
           rdf:resource="http://creativecommons.org/ns#DerivativeWorks" />
        <cc:requires
           rdf:resource="http://creativecommons.org/ns#ShareAlike" />
      </cc:License>
    </rdf:RDF>
  </metadata>
</svg>
