<?xml version="1.0" encoding="UTF-8" standalone="no"?>
<!-- Created with Inkscape (http://www.inkscape.org/) -->

<svg
   width="400"
   height="240"
   viewBox="0 0 105.83333 63.5"
   version="1.1"
   id="svg5"
   inkscape:version="1.2.2 (b0a8486541, 2022-12-01)"
   sodipodi:docname="doublestar.svg"
   inkscape:export-filename="../Source/Images/shapes/Doublestar.png"
   inkscape:export-xdpi="96"
   inkscape:export-ydpi="96"
   xmlns:inkscape="http://www.inkscape.org/namespaces/inkscape"
   xmlns:sodipodi="http://sodipodi.sourceforge.net/DTD/sodipodi-0.dtd"
   xmlns="http://www.w3.org/2000/svg"
   xmlns:svg="http://www.w3.org/2000/svg">
  <sodipodi:namedview
     id="namedview7"
     pagecolor="#ffffff"
     bordercolor="#666666"
     borderopacity="1.0"
     inkscape:showpageshadow="2"
     inkscape:pageopacity="0.0"
     inkscape:pagecheckerboard="0"
     inkscape:deskcolor="#d1d1d1"
     inkscape:document-units="px"
     showgrid="false"
     inkscape:zoom="2.7812867"
     inkscape:cx="193.07611"
     inkscape:cy="120.0883"
     inkscape:window-width="1860"
     inkscape:window-height="1051"
     inkscape:window-x="0"
     inkscape:window-y="0"
     inkscape:window-maximized="1"
     inkscape:current-layer="layer1">
    <sodipodi:guide
       position="0,63.499999"
       orientation="120,0"
       id="guide236"
       inkscape:locked="false" />
    <sodipodi:guide
       position="0,31.749999"
       orientation="0,199.99999"
       id="guide238"
       inkscape:locked="false" />
    <sodipodi:guide
       position="52.916664,31.749999"
       orientation="-120,0"
       id="guide240"
       inkscape:locked="false" />
    <sodipodi:guide
       position="52.916664,63.499999"
       orientation="0,-199.99999"
       id="guide242"
       inkscape:locked="false" />
  </sodipodi:namedview>
  <defs
     id="defs2" />
  <g
     inkscape:label="Layer 1"
     inkscape:groupmode="layer"
     id="layer1">
    <path
       sodipodi:type="star"
       style="fill:#e6e6e6;stroke-width:0.529167"
       id="path235"
       inkscape:flatsided="false"
       sodipodi:sides="36"
       sodipodi:cx="52.91666"
       sodipodi:cy="31.75"
       sodipodi:r1="4.9009914"
       sodipodi:r2="0.34306937"
       sodipodi:arg1="0.52043528"
       sodipodi:arg2="0.60770174"
       inkscape:rounded="0.01"
       inkscape:randomized="0"
       d="m 57.168774,34.187056 c -0.02267,0.03956 -3.944434,-2.2786 -3.970467,-2.241169 -0.02603,0.03743 3.511874,2.907498 3.482678,2.942517 -0.0292,0.03502 -3.488835,-2.928927 -3.520972,-2.896586 -0.03214,0.03234 2.953639,3.473157 2.918805,3.502575 -0.03483,0.02942 -2.927228,-3.49026 -2.964493,-3.463991 -0.03726,0.02627 2.305658,3.933286 2.266246,3.956208 -0.03941,0.02292 -2.27668,-3.945543 -2.31794,-3.926144 -0.04126,0.0194 1.587622,4.273904 1.544828,4.289634 -0.04279,0.01573 -1.556956,-4.280943 -1.600958,-4.269003 -0.044,0.01194 0.821347,4.484662 0.776472,4.492721 -0.04487,0.0081 -0.789924,-4.486268 -0.835331,-4.48215 -0.04541,0.0041 0.03012,4.559155 -0.01548,4.559299 -0.04559,1.44e-4 0.0011,-4.55528 -0.04432,-4.55911 -0.04543,-0.0038 -0.762031,4.495121 -0.806956,4.487345 -0.04492,-0.0078 0.792108,-4.485882 0.748031,-4.497543 -0.04408,-0.01166 -1.531023,4.294504 -1.573916,4.279046 -0.04289,-0.01546 1.55904,-4.280184 1.517657,-4.299321 -0.04138,-0.01914 -2.253496,3.963402 -2.293053,3.94073 -0.03956,-0.02267 2.2786,-3.944434 2.24117,-3.970467 -0.03743,-0.02603 -2.907499,3.511874 -2.942518,3.482677 -0.03502,-0.0292 2.928927,-3.488834 2.896586,-3.520971 -0.03234,-0.03214 -3.473157,2.953638 -3.502574,2.918805 -0.02942,-0.03483 3.490259,-2.927229 3.46399,-2.964493 -0.02627,-0.03727 -3.933286,2.305658 -3.956207,2.266246 -0.02292,-0.03941 3.945542,-2.27668 3.926143,-2.317941 -0.0194,-0.04126 -4.273904,1.587623 -4.289633,1.544829 -0.01573,-0.04279 4.280942,-1.556956 4.269002,-1.600958 -0.01194,-0.044 -4.484661,0.821347 -4.492721,0.776472 -0.0081,-0.04488 4.486268,-0.789925 4.482151,-0.835332 -0.0041,-0.04541 -4.559155,0.03012 -4.5593,-0.01548 -1.44e-4,-0.04559 4.555281,0.0011 4.559111,-0.04432 0.0038,-0.04543 -4.495121,-0.762031 -4.487346,-0.806956 0.0078,-0.04493 4.485882,0.792108 4.497544,0.748031 0.01166,-0.04408 -4.294505,-1.531023 -4.279047,-1.573916 0.01546,-0.04289 4.280184,1.559039 4.299322,1.517657 0.01914,-0.04138 -3.963402,-2.253497 -3.940731,-2.293053 0.02267,-0.03956 3.944434,2.2786 3.970467,2.241169 0.02603,-0.03743 -3.511873,-2.907498 -3.482677,-2.942517 0.0292,-0.03502 3.488834,2.928927 3.520971,2.896586 0.03214,-0.03234 -2.953638,-3.473157 -2.918804,-3.502575 0.03483,-0.02942 2.927228,3.49026 2.964493,3.463991 0.03727,-0.02627 -2.305659,-3.933286 -2.266246,-3.956208 0.03941,-0.02292 2.27668,3.945543 2.31794,3.926144 0.04126,-0.0194 -1.587622,-4.273904 -1.544828,-4.289634 0.04279,-0.01573 1.556955,4.280943 1.600958,4.269003 0.044,-0.01194 -0.821348,-4.484662 -0.776472,-4.492721 0.04487,-0.0081 0.789924,4.486268 0.835331,4.48215 0.04541,-0.0041 -0.03012,-4.559155 0.01548,-4.559299 0.04559,-1.44e-4 -0.0011,4.55528 0.04432,4.55911 0.04543,0.0038 0.762031,-4.495121 0.806957,-4.487345 0.04492,0.0078 -0.792108,4.485882 -0.748032,4.497543 0.04408,0.01166 1.531024,-4.294504 1.573916,-4.279046 0.04289,0.01546 -1.559039,4.280184 -1.517657,4.299321 0.04138,0.01914 2.253497,-3.963402 2.293054,-3.94073 0.03956,0.02267 -2.278601,3.944434 -2.24117,3.970467 0.03743,0.02603 2.907498,-3.511874 2.942517,-3.482677 0.03502,0.0292 -2.928927,3.488834 -2.896586,3.520971 0.03234,0.03214 3.473158,-2.953638 3.502575,-2.918805 0.02942,0.03483 -3.49026,2.927229 -3.463991,2.964493 0.02627,0.03727 3.933287,-2.305658 3.956208,-2.266246 0.02292,0.03941 -3.945543,2.27668 -3.926143,2.317941 0.0194,0.04126 4.273904,-1.587623 4.289633,-1.544829 0.01573,0.04279 -4.280942,1.556956 -4.269003,1.600958 0.01194,0.044 4.484662,-0.821347 4.492721,-0.776472 0.0081,0.04488 -4.486267,0.789925 -4.48215,0.835332 0.0041,0.04541 4.559155,-0.03012 4.559299,0.01548 1.44e-4,0.04559 -4.55528,-0.0011 -4.55911,0.04432 -0.0038,0.04543 4.495121,0.762031 4.487346,0.806956 -0.0078,0.04493 -4.485883,-0.792108 -4.497544,-0.748031 -0.01166,0.04408 4.294505,1.531023 4.279047,1.573916 -0.01546,0.04289 -4.280184,-1.559039 -4.299322,-1.517657 -0.01914,0.04138 3.963402,2.253497 3.94073,2.293053 z" />
    <path
       sodipodi:type="star"
       style="fill:#fdfdff;stroke-width:0.529167;fill-opacity:1"
       id="path237"
       inkscape:flatsided="false"
       sodipodi:sides="36"
       sodipodi:cx="52.91666"
       sodipodi:cy="31.75"
       sodipodi:r1="15.902466"
       sodipodi:r2="1.1131725"
       sodipodi:arg1="0.27372609"
       sodipodi:arg2="0.36099255"
       inkscape:rounded="0.01"
       inkscape:randomized="0"
       d="m 68.227083,36.048765 c -0.03999,0.142431 -14.216745,-4.043992 -14.268998,-3.905589 -0.05225,0.138403 13.354041,6.365586 13.289925,6.498908 -0.06412,0.133323 -13.298529,-6.451267 -13.374021,-6.32404 -0.07549,0.127227 12.045791,8.587783 11.959498,8.707947 -0.08629,0.120163 -11.976244,-8.662524 -12.072681,-8.550338 -0.09644,0.112185 10.371535,10.549045 10.265686,10.652398 -0.105848,0.103353 -10.290066,-10.610573 -10.404519,-10.516838 -0.114454,0.09373 8.382146,12.189779 8.259958,12.273182 -0.122187,0.0834 -8.29123,-12.236226 -8.420222,-12.16379 -0.128991,0.07244 6.13807,13.460134 6.003256,13.521052 -0.134814,0.06092 -6.04047,-13.490087 -6.18008,-13.441151 -0.13961,0.04894 3.707491,14.321509 3.564147,14.358091 -0.143344,0.03658 -3.606173,-14.334058 -3.75216,-14.310109 -0.145986,0.02395 1.164262,14.747732 1.016743,14.758867 -0.147519,0.01114 -1.062303,-14.742497 -1.210231,-14.744262 -0.147928,-0.0018 -1.414343,14.725853 -1.561554,14.711203 -0.147211,-0.01465 1.513843,-14.702993 1.368469,-14.730418 -0.145374,-0.02742 -3.949973,14.256535 -4.092404,14.216544 -0.142431,-0.03999 4.043993,-14.216745 3.905589,-14.268997 -0.138403,-0.05225 -6.365585,13.354041 -6.498908,13.289925 -0.133323,-0.06412 6.451267,-13.298529 6.32404,-13.374021 -0.127227,-0.07549 -8.587783,12.045791 -8.707947,11.959498 -0.120163,-0.08629 8.662524,-11.976244 8.550339,-12.072682 -0.112186,-0.09644 -10.549046,10.371536 -10.652399,10.265687 -0.103353,-0.105848 10.610573,-10.290066 10.516839,-10.40452 -0.09373,-0.114453 -12.18978,8.382146 -12.273183,8.259959 -0.0834,-0.122187 12.236226,-8.29123 12.16379,-8.420222 -0.07244,-0.128991 -13.460134,6.13807 -13.521052,6.003256 -0.06092,-0.134814 13.490087,-6.04047 13.441151,-6.18008 -0.04894,-0.13961 -14.321509,3.70749 -14.358091,3.564146 -0.03658,-0.143344 14.334059,-3.606172 14.310109,-3.752159 -0.02395,-0.145987 -14.747732,1.164262 -14.758867,1.016743 -0.01114,-0.147519 14.742498,-1.062303 14.744262,-1.210231 0.0018,-0.147928 -14.725853,-1.414343 -14.711202,-1.561554 0.01465,-0.147212 14.702993,1.513843 14.730418,1.368469 0.02743,-0.145374 -14.256536,-3.949974 -14.216545,-4.092404 0.03999,-0.142431 14.216745,4.043992 14.268997,3.905589 0.05225,-0.138403 -13.354041,-6.365586 -13.289925,-6.498908 0.06412,-0.133323 13.298529,6.451267 13.374021,6.32404 0.07549,-0.127227 -12.045791,-8.587783 -11.959497,-8.707947 0.08629,-0.120163 11.976243,8.662524 12.072681,8.550338 0.09644,-0.112185 -10.371535,-10.549045 -10.265687,-10.652398 0.105849,-0.103353 10.290066,10.610573 10.40452,10.516838 0.114453,-0.09373 -8.382146,-12.189779 -8.259959,-12.273182 0.122188,-0.0834 8.291231,12.236226 8.420222,12.16379 0.128992,-0.07244 -6.138069,-13.460134 -6.003255,-13.521052 0.134814,-0.06092 6.040469,13.490087 6.180079,13.441151 0.139611,-0.04894 -3.70749,-14.321509 -3.564146,-14.358091 0.143344,-0.03658 3.606172,14.334058 3.752159,14.310109 0.145987,-0.02395 -1.164261,-14.747732 -1.016743,-14.758867 0.147519,-0.01113 1.062304,14.742497 1.210231,14.744262 0.147928,0.0018 1.414343,-14.725853 1.561555,-14.711203 0.147211,0.01465 -1.513844,14.702993 -1.36847,14.730418 0.145375,0.02743 3.949974,-14.256535 4.092405,-14.216544 0.14243,0.03999 -4.043993,14.216745 -3.90559,14.268997 0.138404,0.05225 6.365586,-13.354041 6.498909,-13.289925 0.133322,0.06412 -6.451268,13.298529 -6.324041,13.374021 0.127228,0.07549 8.587784,-12.045791 8.707947,-11.959498 0.120164,0.08629 -8.662523,11.976244 -8.550338,12.072682 0.112185,0.09644 10.549045,-10.371536 10.652398,-10.265687 0.103354,0.105848 -10.610573,10.290066 -10.516838,10.40452 0.09374,0.114453 12.18978,-8.382146 12.273182,-8.259959 0.0834,0.122187 -12.236225,8.29123 -12.163789,8.420222 0.07244,0.128991 13.460133,-6.13807 13.521051,-6.003256 0.06092,0.134814 -13.490087,6.04047 -13.44115,6.18008 0.04894,0.13961 14.321508,-3.70749 14.358091,-3.564146 0.03658,0.143344 -14.334059,3.606172 -14.310109,3.752159 0.02395,0.145987 14.747732,-1.164262 14.758867,-1.016743 0.01113,0.147519 -14.742498,1.062303 -14.744262,1.210231 -0.0018,0.147928 14.725852,1.414343 14.711202,1.561554 -0.01465,0.147212 -14.702993,-1.513843 -14.730418,-1.368469 -0.02742,0.145374 14.256536,3.949974 14.216545,4.092404 z" />
    <path
       sodipodi:type="star"
       style="fill:#fdfdff;fill-opacity:1;stroke-width:0.529167;stroke:#000000;stroke-opacity:1"
       id="path4485"
       inkscape:flatsided="false"
       sodipodi:sides="36"
       sodipodi:cx="52.91666"
       sodipodi:cy="31.75"
       sodipodi:r1="12.827116"
       sodipodi:r2="0.89789808"
       sodipodi:arg1="0.45280259"
       sodipodi:arg2="0.54006905"
       inkscape:rounded="0.01"
       inkscape:randomized="0"
       d="m 64.451118,37.361702 c -0.05221,0.107303 -10.702996,-5.252352 -10.764355,-5.150007 -0.06136,0.102345 9.684704,6.971082 9.614659,7.06769 -0.07005,0.09661 -9.628332,-7.031113 -9.706531,-6.940977 -0.0782,0.09013 8.327055,8.546906 8.241299,8.629883 -0.08576,0.08298 -8.261116,-8.596236 -8.353778,-8.521049 -0.09266,0.07519 6.716393,9.863038 6.617531,9.929863 -0.09886,0.06683 -6.642891,-9.900168 -6.747201,-9.842214 -0.104311,0.05795 4.901658,10.879486 4.792693,10.928128 -0.108965,0.04864 -4.822824,-10.903288 -4.935613,-10.864327 -0.11279,0.03896 2.937988,11.565365 2.822232,11.594347 -0.115756,0.02898 -2.856218,-11.575117 -2.97406,-11.556334 -0.117841,0.01878 0.885049,11.899838 0.766019,11.908279 -0.11903,0.0084 -0.802828,-11.895242 -0.922141,-11.897208 -0.119312,-0.002 -1.194782,11.87274 -1.31347,11.860384 -0.118687,-0.01236 1.274957,-11.853937 1.157798,-11.876591 -0.117159,-0.02265 -3.238311,11.484895 -3.35305,11.452116 -0.114738,-0.03278 3.314002,-11.452455 3.202557,-11.495109 -0.111446,-0.04265 -5.183445,10.748086 -5.290748,10.695881 -0.107304,-0.0522 5.252352,-10.702996 5.150006,-10.764354 -0.102345,-0.06136 -6.971082,9.684703 -7.06769,9.614658 -0.09661,-0.07004 7.031113,-9.628332 6.940978,-9.70653 -0.09014,-0.0782 -8.546907,8.327055 -8.629884,8.241299 -0.08298,-0.08576 8.596236,-8.261117 8.521049,-8.353779 -0.07519,-0.09266 -9.863038,6.716394 -9.929863,6.617531 -0.06683,-0.09886 9.900169,-6.64289 9.842214,-6.747201 -0.05795,-0.10431 -10.879485,4.901658 -10.928128,4.792694 -0.04864,-0.108965 10.903288,-4.822824 10.864328,-4.935614 -0.03896,-0.112789 -11.565366,2.937988 -11.594348,2.822232 -0.02898,-0.115755 11.575117,-2.856218 11.556334,-2.974059 -0.01878,-0.117841 -11.899838,0.885048 -11.908279,0.766018 -0.0084,-0.11903 11.895243,-0.802827 11.897208,-0.92214 0.002,-0.119313 -11.87274,-1.194782 -11.860383,-1.31347 0.01236,-0.118687 11.853936,1.274956 11.87659,1.157797 0.02265,-0.117158 -11.484894,-3.23831 -11.452116,-3.353049 0.03278,-0.114738 11.452455,3.314001 11.495109,3.202556 0.04265,-0.111445 -10.748086,-5.183444 -10.695881,-5.290748 0.05221,-0.107303 10.702996,5.252352 10.764354,5.150007 0.06136,-0.102345 -9.684703,-6.971082 -9.614658,-7.06769 0.07005,-0.09661 9.628332,7.031113 9.70653,6.940977 0.0782,-0.09014 -8.327055,-8.546906 -8.241298,-8.629883 0.08576,-0.08298 8.261116,8.596236 8.353778,8.521049 0.09266,-0.07519 -6.716394,-9.863038 -6.617531,-9.929863 0.09886,-0.06683 6.64289,9.900168 6.747201,9.842214 0.10431,-0.05795 -4.901658,-10.879486 -4.792693,-10.928128 0.108964,-0.04864 4.822823,10.903288 4.935613,10.864327 0.112789,-0.03896 -2.937988,-11.565365 -2.822232,-11.594347 0.115756,-0.02898 2.856218,11.575117 2.974059,11.556334 0.117842,-0.01878 -0.885048,-11.899838 -0.766018,-11.908279 0.11903,-0.0084 0.802828,11.895242 0.92214,11.897208 0.119313,0.002 1.194783,-11.87274 1.31347,-11.860384 0.118688,0.01236 -1.274956,11.853937 -1.157797,11.876591 0.117159,0.02265 3.238311,-11.484895 3.353049,-11.452116 0.114739,0.03278 -3.314001,11.452455 -3.202556,11.495109 0.111445,0.04265 5.183445,-10.748086 5.290748,-10.695881 0.107304,0.0522 -5.252352,10.702996 -5.150007,10.764354 0.102345,0.06136 6.971082,-9.684703 7.06769,-9.614658 0.09661,0.07004 -7.031113,9.628332 -6.940977,9.70653 0.09014,0.0782 8.546907,-8.327055 8.629884,-8.241299 0.08298,0.08576 -8.596237,8.261117 -8.52105,8.353779 0.07519,0.09266 9.863038,-6.716394 9.929863,-6.617531 0.06683,0.09886 -9.900168,6.64289 -9.842214,6.747201 0.05795,0.10431 10.879486,-4.901658 10.928129,-4.792694 0.04864,0.108965 -10.903289,4.822824 -10.864328,4.935614 0.03896,0.112789 11.565366,-2.937988 11.594348,-2.822232 0.02898,0.115755 -11.575118,2.856218 -11.556335,2.974059 0.01878,0.117841 11.899838,-0.885048 11.908279,-0.766018 0.0084,0.11903 -11.895242,0.802827 -11.897207,0.92214 -0.002,0.119313 11.87274,1.194782 11.860383,1.31347 -0.01236,0.118687 -11.853937,-1.274956 -11.876591,-1.157797 -0.02265,0.117158 11.484895,3.23831 11.452116,3.353049 -0.03278,0.114738 -11.452455,-3.314001 -11.495109,-3.202556 -0.04265,0.111445 10.748087,5.183444 10.695882,5.290748 z" />
    <path
       sodipodi:type="star"
       style="fill:#fdfdff;fill-opacity:1;stroke:#000000;stroke-width:0.529167;stroke-opacity:1"
       id="path4489"
       inkscape:flatsided="false"
       sodipodi:sides="36"
       sodipodi:cx="52.91666"
       sodipodi:cy="31.75"
       sodipodi:r1="27.110764"
       sodipodi:r2="1.8977534"
       sodipodi:arg1="-1.7342979"
       sodipodi:arg2="-1.6470314"
       inkscape:rounded="0.01"
       inkscape:randomized="0"
       d="M 48.503731,5.0008027 C 48.752575,4.9597499 52.52065,29.876967 52.772125,29.857759 53.0236,29.83855 52.96353,4.6381039 53.215723,4.640886 c 0.252192,0.00278 -0.363808,25.19577 -0.112818,25.220522 0.25099,0.02475 4.567845,-24.8032746 4.815722,-24.756742 0.247878,0.046533 -4.73348,24.749815 -4.490601,24.817775 0.242879,0.06796 8.805492,-23.6332593 9.041524,-23.54439 0.236032,0.088869 -8.959328,23.55185 -8.73194,23.660952 C 53.964998,30.148106 66.513199,8.2938441 66.730213,8.4223498 66.947227,8.5508554 53.817261,30.060623 54.022249,30.207554 54.227237,30.354484 70.379756,11.01121 70.571158,11.175447 70.76256,11.339685 54.096936,30.242676 54.273296,30.42297 54.449655,30.603264 73.715705,14.358714 73.87568,14.553692 c 0.159975,0.194979 -19.534931,15.916836 -19.392558,16.125016 0.142372,0.20818 21.936564,-12.444066 22.060251,-12.224269 0.123687,0.219796 -22.002081,12.282818 -21.898021,12.512558 0.104059,0.229739 23.764188,-8.445768 23.847828,-8.207833 0.08364,0.237934 -23.800709,8.275593 -23.738124,8.519912 0.06258,0.244319 24.869749,-4.19085 24.910802,-3.942005 0.04105,0.248844 -24.876165,4.016919 -24.856956,4.268394 0.01921,0.251475 25.219654,0.191405 25.216872,0.443597 -0.0028,0.252193 -25.19577,-0.363807 -25.220521,-0.112817 -0.02475,0.25099 24.803274,4.567844 24.756741,4.815722 -0.04653,0.247878 -24.749815,-4.73348 -24.817774,-4.490601 -0.06796,0.242879 23.633259,8.805492 23.544389,9.041524 C 78.19974,41.538921 54.73676,32.343561 54.627657,32.570949 54.518554,32.798338 76.372816,45.346539 76.244311,45.563553 76.115805,45.780567 54.606037,32.650601 54.459107,32.855589 54.312176,33.060577 73.65545,49.213095 73.491213,49.404498 73.326976,49.5959 54.423984,32.930276 54.24369,33.106635 54.063396,33.282995 70.307947,52.549045 70.112968,52.70902 69.917989,52.868995 54.196132,33.174089 53.987952,33.316461 53.779773,33.458834 66.432018,55.253026 66.212222,55.376713 65.992426,55.500399 53.929403,33.374632 53.699664,33.478691 c -0.22974,0.10406 8.445768,23.764188 8.207833,23.847829 -0.237935,0.08364 -8.275594,-23.800709 -8.519913,-23.738124 -0.244319,0.06258 4.19085,24.869748 3.942006,24.910801 -0.248844,0.04105 -4.016919,-24.876164 -4.268394,-24.856956 -0.251476,0.01921 -0.191406,25.219655 -0.443598,25.216873 -0.252192,-0.0028 0.363808,-25.19577 0.112817,-25.220522 -0.25099,-0.02475 -4.567844,24.803275 -4.815722,24.756742 -0.247878,-0.04653 4.73348,-24.749815 4.490601,-24.817775 -0.242879,-0.06796 -8.805492,23.633259 -9.041523,23.54439 -0.236032,-0.08887 8.959328,-23.55185 8.73194,-23.660952 C 51.868323,33.351894 39.320122,55.206156 39.103108,55.07765 38.886094,54.949145 52.01606,33.439377 51.811071,33.292446 51.606083,33.145516 35.453565,52.48879 35.262163,52.324553 35.07076,52.160315 51.736384,33.257324 51.560025,33.07703 51.383665,32.896736 32.117616,49.141286 31.957641,48.946308 31.797666,48.751329 51.492571,33.029472 51.350199,32.821292 51.207826,32.613112 29.413635,45.265358 29.289948,45.045561 29.166261,44.825765 51.292029,32.762743 51.187969,32.533003 51.083909,32.303264 27.423781,40.978771 27.340141,40.740836 27.2565,40.502902 51.140849,32.465243 51.078265,32.220924 51.01568,31.976605 26.208516,36.411774 26.167463,36.162929 26.12641,35.914085 51.043627,32.14601 51.024419,31.894535 51.00521,31.64306 25.804764,31.70313 25.807546,31.450938 c 0.0028,-0.252193 25.19577,0.363807 25.220522,0.112817 0.02475,-0.25099 -24.803274,-4.567844 -24.756742,-4.815722 0.04653,-0.247878 24.749816,4.73348 24.817775,4.490601 0.06796,-0.242879 -23.633259,-8.805492 -23.54439,-9.041524 0.08887,-0.236031 23.55185,8.959329 23.660953,8.731941 C 51.314766,30.701662 29.460504,18.153461 29.58901,17.936447 29.717516,17.719433 51.227283,30.849399 51.374214,30.644411 51.521144,30.439423 32.17787,14.286905 32.342108,14.095502 32.506345,13.9041 51.409336,30.569724 51.589631,30.393365 51.769925,30.217005 35.525374,10.950955 35.720353,10.79098 35.915332,10.631005 51.637189,30.325911 51.845368,30.183539 52.053548,30.041166 39.401303,8.2469742 39.621099,8.1232874 39.840895,7.9996007 51.903917,30.125368 52.133657,30.021309 52.363397,29.917249 43.687889,6.2571208 43.925824,6.1734803 44.163759,6.0898398 52.201417,29.974189 52.445737,29.911604 52.690056,29.849019 48.254887,5.0418556 48.503731,5.0008027 Z" />
  </g>
</svg>
