<?xml version="1.0" encoding="UTF-8" standalone="no"?>
<!-- Created with Inkscape (http://www.inkscape.org/) -->

<svg
   width="400"
   height="240"
   viewBox="0 0 105.83333 63.5"
   version="1.1"
   id="svg5"
   inkscape:version="1.2.2 (b0a8486541, 2022-12-01)"
   sodipodi:docname="doublespiral.svg"
   inkscape:export-filename="../Source/Images/shapes/DoubleSpiral.png"
   inkscape:export-xdpi="96"
   inkscape:export-ydpi="96"
   xmlns:inkscape="http://www.inkscape.org/namespaces/inkscape"
   xmlns:sodipodi="http://sodipodi.sourceforge.net/DTD/sodipodi-0.dtd"
   xmlns="http://www.w3.org/2000/svg"
   xmlns:svg="http://www.w3.org/2000/svg">
  <sodipodi:namedview
     id="namedview7"
     pagecolor="#ffffff"
     bordercolor="#666666"
     borderopacity="1.0"
     inkscape:showpageshadow="2"
     inkscape:pageopacity="0.0"
     inkscape:pagecheckerboard="0"
     inkscape:deskcolor="#d1d1d1"
     inkscape:document-units="px"
     showgrid="false"
     inkscape:zoom="2.7812867"
     inkscape:cx="199.90748"
     inkscape:cy="120.0883"
     inkscape:window-width="1860"
     inkscape:window-height="1051"
     inkscape:window-x="0"
     inkscape:window-y="0"
     inkscape:window-maximized="1"
     inkscape:current-layer="layer1">
    <sodipodi:guide
       position="0,63.499999"
       orientation="120,0"
       id="guide236"
       inkscape:locked="false" />
    <sodipodi:guide
       position="0,31.749999"
       orientation="0,199.99999"
       id="guide238"
       inkscape:locked="false" />
    <sodipodi:guide
       position="52.916664,31.749999"
       orientation="-120,0"
       id="guide240"
       inkscape:locked="false" />
    <sodipodi:guide
       position="52.916664,63.499999"
       orientation="0,-199.99999"
       id="guide242"
       inkscape:locked="false" />
  </sodipodi:namedview>
  <defs
     id="defs2" />
  <g
     inkscape:label="Layer 1"
     inkscape:groupmode="layer"
     id="layer1">
    <path
       sodipodi:type="spiral"
       style="fill:none;fill-rule:evenodd;stroke:#000000;stroke-width:0.264583"
       id="path236"
       sodipodi:cx="52.916664"
       sodipodi:cy="31.75"
       sodipodi:expansion="1.02"
       sodipodi:revolution="13.2"
       sodipodi:radius="29.600212"
       sodipodi:argument="-74.312859"
       sodipodi:t0="0"
       d="m 52.916664,31.75 c 0.144313,0.273562 -0.301806,0.328897 -0.458029,0.241626 -0.436542,-0.243866 -0.328326,-0.865715 -0.03197,-1.170472 0.535833,-0.55102 1.436167,-0.357976 1.894612,0.187865 0.677807,0.807022 0.390173,2.020179 -0.410938,2.624606 -1.073801,0.810167 -2.6109,0.423652 -3.358738,-0.635975 -0.945365,-1.339506 -0.457851,-3.2059 0.862412,-4.096093 1.605106,-1.082249 3.80401,-0.492491 4.836095,1.089938 1.220254,1.870937 0.527423,4.404555 -1.318351,5.578344 -2.137125,1.359068 -5.007101,0.562563 -6.322547,-1.547512 -1.498504,-2.403713 -0.597859,-5.611348 1.777319,-7.068482 2.670708,-1.638437 6.217075,-0.633275 7.815971,2.007698 1.778784,2.938101 0.668791,6.824111 -2.238585,8.564868 -3.205881,1.919484 -7.432326,0.704389 -9.315056,-2.469932 -2.060492,-3.47403 -0.740057,-8.041611 2.701699,-10.066434 3.74253,-2.201771 8.651875,-0.775787 10.818915,2.933853 2.343296,4.011363 0.811573,9.263044 -3.166363,11.572425 -4.280515,2.485043 -9.875055,0.847407 -12.326901,-3.399205 -2.626994,-4.549971 -0.883286,-10.487853 3.632359,-13.082284 4.819715,-2.769134 11.101387,-0.919207 13.838524,3.865803 2.911448,5.089736 0.955166,11.715617 -4.099523,14.595577 -5.36002,3.053926 -12.330505,0.99116 -15.353401,-4.333503 -3.196557,-5.630558 -1.027188,-12.946017 4.567729,-16.11196 5.901338,-3.339335 13.562123,-1.063248 16.871221,4.80219 3.482249,6.172351 1.099337,14.178794 -5.036875,17.631153 -6.443588,3.625294 -14.796006,1.135455 -18.391727,-5.271774 -3.768464,-6.71504 -1.1716,-15.413737 5.506877,-19.15292 6.9867,-3.911751 16.031966,-1.207771 19.914706,5.742177 4.055153,7.258561 1.243966,16.650673 -5.977665,20.677064 -7.530616,4.198665 -17.26984,1.280187 -21.439975,-6.213334 -4.342281,-7.802858 -1.316428,-17.889452 6.449179,-22.203418 8.075283,-4.485998 18.509492,-1.352693 22.967377,6.685192 4.629812,8.347883 1.388979,19.129947 -6.921369,23.731834 -8.620654,4.773721 -19.750802,1.425287 -24.496775,-7.157703 -4.917719,-8.89359 -1.461613,-20.372047 7.39419,-25.262184 9.166689,-5.0618072 20.993669,-1.497959 26.028049,7.630825 5.20598,9.439943 1.534325,21.615656 -7.867603,26.794356 -9.713351,5.350235 -22.238,1.570708 -27.561094,-8.104522 C 29.205843,31.372781 33.093305,18.498999 43.041991,13.031438 53.302597,7.3924528 66.525704,11.38791 72.137803,21.6102 77.921278,32.144648 73.817767,45.717267 63.321726,51.473973 52.513299,57.402013 38.590987,53.19039 32.689605,42.420457 26.616929,31.337916 30.93672,17.065733 41.980683,11.019609 53.337469,4.8022269 67.959695,9.2302398 74.150626,20.548368 c 6.362158,11.631159 1.825869,26.603597 -9.766555,32.9394 -11.905659,6.507 -27.228473,1.862384 -33.709209,-10.004466 C 24.022954,31.303022 28.775948,15.629671 40.917349,9.0039388 53.372371,2.2070593 69.396416,7.0684812 76.167203,19.484555 83.109117,32.214437 78.139219,48.589331 65.448351,55.505232 52.443495,62.592242 35.717602,57.51382 28.656529,44.54804 21.424363,31.268096 26.611355,14.191058 39.852161,6.9847555 53.407305,-0.39262468 70.835633,4.9029826 78.18722,18.418929 c 7.522652,13.83045 2.118385,31.61021 -11.672811,39.107136 -11.063221,6.013993 -25.105326,4.102128 -34.22908,-4.550595" />
    <path
       sodipodi:type="spiral"
       style="fill:none;fill-rule:evenodd;stroke:#000000;stroke-width:0.264583"
       id="path238"
       sodipodi:cx="52.916664"
       sodipodi:cy="31.75"
       sodipodi:expansion="0.94"
       sodipodi:revolution="12.7"
       sodipodi:radius="28.780434"
       sodipodi:argument="-82.539093"
       sodipodi:t0="0"
       d="m 52.916664,31.75 c 0.288748,-0.33383 0.588488,0.206541 0.542371,0.469126 -0.113951,0.648825 -0.925433,0.80377 -1.442403,0.571428 -0.895303,-0.402375 -1.075383,-1.561588 -0.623286,-2.358155 0.648803,-1.143151 2.188491,-1.351114 3.250056,-0.678732 1.391105,0.881109 1.626668,2.806482 0.73549,4.126049 -1.106256,1.638034 -3.41701,1.900957 -4.990083,0.792812 -1.883587,-1.326887 -2.173694,-4.021272 -0.85037,-5.844541 1.544283,-2.127705 4.620176,-2.444853 6.69102,-0.908007 2.37043,1.759179 2.714495,5.21442 0.965635,7.530669 -1.972042,2.611839 -5.804552,2.982706 -8.36435,1.023205 -2.852017,-2.18319 -3.24958,-6.391009 -1.080689,-9.192738 2.392859,-3.091045 6.974149,-3.515205 10.01637,-1.138068 3.329002,2.601223 3.779666,7.554267 1.195336,10.835688 -2.808423,3.565958 -8.131616,4.043037 -11.651061,1.252485 -3.801975,-3.014569 -4.305385,-8.706406 -1.309515,-12.462798 3.219755,-4.037112 9.278823,-4.566772 13.271169,-1.366425 4.271418,3.424056 4.827252,9.849026 1.423215,14.076404 -3.627539,4.504939 -10.417156,5.086875 -14.878704,1.479887 -4.73772,-3.830261 -5.345687,-10.983338 -1.536444,-15.67825 4.03227,-4.969795 11.547681,-5.603727 16.475197,-1.592887 5.201201,4.233611 5.861034,12.110286 1.64922,17.26969 -4.43432,5.431969 -12.671241,6.117641 -18.061853,1.705444 -5.662128,-4.634432 -6.37358,-13.230628 -1.761563,-18.851804 4.833978,-5.891704 13.788519,-6.628879 19.639645,-1.817578 6.120722,5.032985 6.883565,14.344983 1.873494,20.425472 -5.23148,6.349204 -14.90008,7.137662 -21.209374,1.929312 -6.577171,-5.429484 -7.391193,-15.453868 -1.985035,-21.991428 5.627019,-6.804644 16.006399,-7.644179 22.771712,-2.040666 7.031638,5.824103 7.896639,16.557721 2.096205,23.550291 -6.020755,7.258172 -17.107878,8.148593 -24.32723,2.151657 -7.48426,-6.21699 -8.400057,-17.656914 -2.207022,-25.102587 6.412825,-7.70992 18.204866,-8.651048 25.876418,-2.262305 7.935163,6.608274 8.901579,18.751772 2.317504,26.648775 C 60.62439,52.461428 48.130075,53.453091 40.008036,46.674049 31.623584,39.675986 30.606714,26.831473 37.580369,18.484797 44.772797,9.8762766 57.966907,8.834238 66.53783,16.002165 75.370052,23.388619 76.43722,36.931743 69.075353,45.726536 61.495201,54.7821 47.603632,55.874362 38.585334,48.318877 29.306775,40.545346 28.189456,26.305882 35.938246,17.064435 43.904846,7.563221 58.491669,6.4208808 67.955919,14.362671 77.679458,22.522039 78.846786,37.455698 70.712292,47.142414 62.360448,57.087957 47.080462,58.280238 37.171606,49.953329 27.004375,41.409294 25.787173,25.783478 34.306216,15.652803 43.042164,5.264188 59.013327,4.0220975 69.36551,12.733 79.975209,21.66059 81.242157,37.976628 72.339662,48.550016 63.220694,59.380506 46.560243,60.67228 35.765947,51.578454 24.71495,42.268366 23.398379,25.263953 32.683282,14.249038 42.184239,2.9778144 59.532174,1.6364765 70.767423,11.112207 82.258601,20.803786 83.624678,38.494811 73.958363,49.950119 64.076402,61.660985 46.042708,63.051771 34.367612,53.195111 25.009637,45.294673 21.778581,31.895183 26.396396,20.570163" />
  </g>
</svg>
