<?xml version="1.0" encoding="UTF-8" standalone="no"?>
<!-- Created with Inkscape (http://www.inkscape.org/) -->

<svg
   width="400"
   height="240"
   viewBox="0 0 105.83333 63.5"
   version="1.1"
   id="svg5"
   inkscape:version="1.2.2 (b0a8486541, 2022-12-01)"
   sodipodi:docname="sarLooped.svg"
   inkscape:export-filename="../Source/Images/shapes/StarLooped.png"
   inkscape:export-xdpi="96"
   inkscape:export-ydpi="96"
   xmlns:inkscape="http://www.inkscape.org/namespaces/inkscape"
   xmlns:sodipodi="http://sodipodi.sourceforge.net/DTD/sodipodi-0.dtd"
   xmlns="http://www.w3.org/2000/svg"
   xmlns:svg="http://www.w3.org/2000/svg">
  <sodipodi:namedview
     id="namedview7"
     pagecolor="#ffffff"
     bordercolor="#666666"
     borderopacity="1.0"
     inkscape:showpageshadow="2"
     inkscape:pageopacity="0.0"
     inkscape:pagecheckerboard="0"
     inkscape:deskcolor="#d1d1d1"
     inkscape:document-units="px"
     showgrid="false"
     inkscape:zoom="2.7812867"
     inkscape:cx="199.90748"
     inkscape:cy="120.0883"
     inkscape:window-width="1860"
     inkscape:window-height="1051"
     inkscape:window-x="0"
     inkscape:window-y="0"
     inkscape:window-maximized="1"
     inkscape:current-layer="layer1">
    <sodipodi:guide
       position="0,63.499999"
       orientation="120,0"
       id="guide236"
       inkscape:locked="false" />
    <sodipodi:guide
       position="0,31.749999"
       orientation="0,199.99999"
       id="guide238"
       inkscape:locked="false" />
    <sodipodi:guide
       position="52.916664,31.749999"
       orientation="-120,0"
       id="guide240"
       inkscape:locked="false" />
    <sodipodi:guide
       position="52.916664,63.499999"
       orientation="0,-199.99999"
       id="guide242"
       inkscape:locked="false" />
  </sodipodi:namedview>
  <defs
     id="defs2" />
  <g
     inkscape:label="Layer 1"
     inkscape:groupmode="layer"
     id="layer1">
    <path
       sodipodi:type="star"
       style="fill:#fdfdff;stroke:#000000;stroke-width:0.529167"
       id="path4644"
       inkscape:flatsided="false"
       sodipodi:sides="36"
       sodipodi:cx="52.91666"
       sodipodi:cy="31.75"
       sodipodi:r1="29.493948"
       sodipodi:r2="7.373487"
       sodipodi:arg1="0.44285292"
       sodipodi:arg2="0.53011938"
       inkscape:rounded="-0.22"
       inkscape:randomized="0"
       d="M 79.56541,44.388715 C 81.654322,39.984241 56.813274,39.683956 59.278112,35.478303 61.74295,31.27265 74.143861,52.799035 76.965866,48.824211 79.787871,44.849387 55.376359,40.240061 58.534054,36.526316 61.69175,32.812571 70.166245,56.165318 73.635599,52.740916 77.104953,49.316514 53.864707,40.5382 57.619315,37.429203 c 3.754608,-3.108996 8.045195,21.36055 12.056482,18.59062 4.011288,-2.769931 -17.351548,-15.450509 -13.114109,-17.860292 4.237438,-2.409783 4.213749,22.433068 8.64509,20.401772 4.43134,-2.031296 -14.404987,-18.228845 -9.81347,-19.866195 4.591517,-1.63735 0.254272,22.82397 4.971021,21.593028 4.71675,-1.230942 -11.020737,-20.453308 -6.214652,-21.268474 4.806084,-0.815166 -3.712932,22.521376 1.14591,22.12819 4.858843,-0.393187 -7.301627,-22.056308 -2.427006,-22.024522 4.874621,0.03179 -7.56732,21.534482 -2.714018,21.990998 4.853301,0.456517 -3.360662,-22.989136 1.434383,-22.111364 4.795045,0.877772 -11.191779,19.893273 -6.491483,21.185621 4.700296,1.292348 0.682416,-23.223453 5.25219,-21.526365 4.569774,1.697088 -14.476181,17.647618 -10.071707,19.73653 4.404474,2.088912 4.704758,-22.752136 8.910411,-20.287298 4.205653,2.464838 -17.320732,14.865748 -13.345908,17.687754 3.974825,2.822005 8.58415,-21.589508 12.297895,-18.431812 3.713745,3.157696 -19.639001,11.632191 -16.2146,15.101545 3.424402,3.469353 12.202716,-19.770893 15.311713,-16.016285 3.108997,3.754609 -21.36055,8.045195 -18.590619,12.056483 2.76993,4.011288 15.450508,-17.351549 17.860291,-13.11411 2.409784,4.237439 -22.433068,4.21375 -20.401772,8.645091 2.031296,4.43134 18.228846,-14.404987 19.866195,-9.81347 1.63735,4.591517 -22.823969,0.254272 -21.593027,4.971021 1.230942,4.71675 20.453308,-11.020737 21.268474,-6.214652 0.815166,4.806084 -22.521376,-3.712932 -22.12819,1.14591 0.393186,4.858842 22.056307,-7.301628 22.024521,-2.427006 -0.03179,4.874621 -21.534482,-7.56732 -21.990998,-2.714019 -0.456516,4.853302 22.989137,-3.360661 22.111364,1.434384 -0.877772,4.795045 -19.893273,-11.191779 -21.185621,-6.491483 -1.292347,4.700296 23.223453,0.682416 21.526365,5.25219 C 44.307353,33.752767 28.356822,14.706812 26.267911,19.111285 24.178999,23.515759 49.020047,23.816044 46.555209,28.021697 44.090371,32.22735 31.68946,10.700965 28.867455,14.675789 26.045449,18.650613 50.456962,23.259939 47.299266,26.973684 44.141571,30.687429 35.667076,7.3346823 32.197722,10.759084 28.728368,14.183486 51.968614,22.9618 48.214006,26.070797 44.459398,29.179793 40.168811,4.7102469 36.157523,7.4801773 32.146236,10.250108 53.509072,22.930686 49.271633,25.340469 45.034194,27.750252 45.057883,2.9074007 40.626543,4.9386968 36.195202,6.969993 55.03153,23.167542 50.440013,24.804892 45.848495,26.442242 50.185741,1.9809223 45.468991,3.2118643 40.752242,4.4428062 56.489728,23.665172 51.683644,24.480338 46.877559,25.295504 55.396575,1.9589622 50.537733,2.3521485 45.678891,2.7453348 57.839361,24.408456 52.96474,24.37667 48.090118,24.344884 60.532059,2.8421878 55.678758,2.3856716 50.825456,1.9291553 59.03942,25.374808 54.244374,24.497036 49.449329,23.619264 65.436153,4.6037626 60.735858,3.3114149 56.035562,2.0190672 60.053442,26.534868 55.483667,24.83778 50.913893,23.140692 69.959849,7.1901621 65.555375,5.1012503 61.150901,3.0123384 60.850616,27.853386 56.644963,25.388548 52.43931,22.92371 73.965696,10.5228 69.990871,7.7007944 66.016047,4.878789 61.406721,29.290302 57.692976,26.132606 53.979232,22.97491 77.331978,14.500415 73.907576,11.031061 70.483175,7.5617076 61.70486,30.801954 58.595864,27.047346 55.486867,23.292737 79.956413,19.002151 77.186483,14.990863 c -2.76993,-4.011288 -15.450509,17.351549 -17.860292,13.11411 -2.409783,-4.237439 22.433069,-4.21375 20.401772,-8.645091 -2.031296,-4.43134 -18.228845,14.404987 -19.866195,9.81347 -1.637349,-4.591517 22.82397,-0.254272 21.593028,-4.971021 -1.230942,-4.71675 -20.453308,11.020737 -21.268474,6.214652 -0.815166,-4.806084 22.521376,3.712932 22.12819,-1.14591 -0.393186,-4.858842 -22.056307,7.301628 -22.024521,2.427006 0.03178,-4.874621 21.534482,7.56732 21.990998,2.714019 0.456516,-4.853302 -22.989137,3.360661 -22.111365,-1.434384 0.877772,-4.795045 19.893274,11.191779 21.185621,6.491483 1.292348,-4.700296 -23.223452,-0.682416 -21.526365,-5.25219 1.697088,-4.569774 17.647618,14.476181 19.73653,10.071708 z" />
  </g>
</svg>
