<?xml version="1.0" encoding="UTF-8" standalone="no"?>
<!-- Created with Inkscape (http://www.inkscape.org/) -->

<svg
   width="400"
   height="240"
   viewBox="0 0 105.83333 63.5"
   version="1.1"
   id="svg5"
   inkscape:version="1.2.2 (b0a8486541, 2022-12-01)"
   sodipodi:docname="spiralthick.svg"
   inkscape:export-filename="../Source/Images/shapes/spiralthick.png"
   inkscape:export-xdpi="96"
   inkscape:export-ydpi="96"
   xmlns:inkscape="http://www.inkscape.org/namespaces/inkscape"
   xmlns:sodipodi="http://sodipodi.sourceforge.net/DTD/sodipodi-0.dtd"
   xmlns="http://www.w3.org/2000/svg"
   xmlns:svg="http://www.w3.org/2000/svg">
  <sodipodi:namedview
     id="namedview7"
     pagecolor="#ffffff"
     bordercolor="#666666"
     borderopacity="1.0"
     inkscape:showpageshadow="2"
     inkscape:pageopacity="0.0"
     inkscape:pagecheckerboard="0"
     inkscape:deskcolor="#d1d1d1"
     inkscape:document-units="px"
     showgrid="false"
     inkscape:zoom="2.7812867"
     inkscape:cx="198.64907"
     inkscape:cy="120.0883"
     inkscape:window-width="1860"
     inkscape:window-height="1051"
     inkscape:window-x="0"
     inkscape:window-y="0"
     inkscape:window-maximized="1"
     inkscape:current-layer="layer1">
    <sodipodi:guide
       position="0,63.499999"
       orientation="120,0"
       id="guide236"
       inkscape:locked="false" />
    <sodipodi:guide
       position="0,31.749999"
       orientation="0,199.99999"
       id="guide238"
       inkscape:locked="false" />
    <sodipodi:guide
       position="52.916664,31.749999"
       orientation="-120,0"
       id="guide240"
       inkscape:locked="false" />
    <sodipodi:guide
       position="52.916664,63.499999"
       orientation="0,-199.99999"
       id="guide242"
       inkscape:locked="false" />
  </sodipodi:namedview>
  <defs
     id="defs2" />
  <g
     inkscape:label="Layer 1"
     inkscape:groupmode="layer"
     id="layer1">
    <path
       sodipodi:type="spiral"
       style="fill:none;fill-rule:evenodd;stroke:#000000;stroke-width:0.52916666;stroke-dasharray:none"
       id="path792"
       sodipodi:cx="52.916664"
       sodipodi:cy="31.75"
       sodipodi:expansion="0.98000002"
       sodipodi:revolution="11.904892"
       sodipodi:radius="28.871386"
       sodipodi:argument="-74.362419"
       sodipodi:t0="0"
       d="m 52.916664,31.75 c 0.202422,0.341557 -0.355056,0.441916 -0.563474,0.333939 -0.547708,-0.283756 -0.448348,-1.053477 -0.09521,-1.445372 0.624927,-0.69351 1.726765,-0.509912 2.312368,0.131389 0.853021,0.934156 0.576632,2.404289 -0.354458,3.172308 -1.234004,1.017881 -3.081414,0.645569 -4.027355,-0.575461 -1.184971,-1.529571 -0.715603,-3.757194 0.795025,-4.87864 1.822629,-1.353068 4.431453,-0.786219 5.726865,1.013493 1.521621,2.113984 0.85716,5.104216 -1.23108,6.572509 -2.404066,1.690359 -5.775567,0.928283 -7.415923,-1.447931 -1.859136,-2.693139 -0.999506,-6.445605 1.664151,-8.257371 2.981376,-2.027873 7.114427,-1.070779 9.097068,1.87982 2.196521,3.268899 1.142069,7.782117 -2.095001,9.935178 -3.555798,2.365056 -8.448758,1.213356 -10.771845,-2.309743 -2.533461,-3.842142 -1.284625,-9.114417 2.524087,-11.607184 4.127987,-2.701729 9.779159,-1.355868 12.441295,2.738068 2.869857,4.413377 1.427079,10.443039 -2.951712,13.274264 -4.69835,3.037844 -11.106109,1.498255 -14.106167,-3.165046 -3.205691,-4.982937 -1.56939,-11.768412 3.378091,-14.937067 5.267164,-3.3734 12.429989,-1.640487 15.767025,3.590864 3.540973,5.551056 1.71154,13.090878 -3.803384,16.59609 -5.834631,3.708414 -13.751112,1.782553 -17.424311,-4.015663 -3.875726,-6.117908 -1.853523,-14.41072 4.227716,-18.251727 6.400903,-4.042913 15.069732,-1.924452 19.078379,4.439552 4.209977,6.683631 1.995339,15.728174 -4.651185,19.9043 -6.966104,4.376923 -16.386067,2.066186 -20.729521,-4.862623 -4.543754,-7.248332 -2.136992,-17.043434 5.073873,-21.554072 7.53033,-4.710472 17.700297,-2.207758 22.37798,5.284947 4.877083,7.812103 2.278486,18.356671 -5.495848,23.201267 -8.093663,5.043588 -19.012577,2.349176 -24.02396,-5.706584 -5.209989,-8.375017 -2.419827,-19.668029 5.917164,-24.846078 8.656172,-5.37629 20.323043,-2.490442 25.66764,6.127591 5.542493,8.937136 2.561021,20.977633 -6.337871,26.488666 -9.217917,5.708602 -21.631813,2.631565 -27.309172,-6.548009 -5.87462,-9.498518 -2.702075,-22.285595 6.75801,-28.129176 9.778946,-6.0405462 22.938989,-2.77255 28.948692,6.967878 6.206384,10.059208 2.842992,23.592011 -7.177619,29.767735 C 53.767692,57.004248 39.862333,53.545512 33.520682,43.244877 26.982875,32.625628 30.536902,18.347909 41.11741,11.840424 52.016447,5.1370291 66.666335,8.786298 73.339564,19.646528 80.208467,30.825205 76.464005,45.847074 65.324197,52.68596 53.866026,59.720293 38.472357,55.880687 31.4679,44.461442 24.268213,32.723917 28.202917,16.958628 39.901461,9.7886823 51.918202,2.4237162 68.054937,6.4534715 75.390292,18.431181 82.920464,30.727003 78.795701,47.235015 66.538959,54.735699 53.964185,62.431006 37.085064,58.21128 29.419127,45.675632 21.558754,32.822035 25.873402,15.571966 38.68783,7.7408511 51.820125,-0.2845182 69.440982,4.1250098 77.437202,17.218095 c 4.907266,8.035204 5.5032,18.211626 1.622706,26.782935" />
  </g>
</svg>
