<?xml version="1.0" encoding="UTF-8" standalone="no"?>
<!-- Created with Inkscape (http://www.inkscape.org/) -->

<svg
   width="400"
   height="240"
   viewBox="0 0 400 240.00001"
   version="1.1"
   id="svg160"
   inkscape:version="1.2.2 (b0a8486541, 2022-12-01)"
   sodipodi:docname="spiral.svg"
   inkscape:export-filename="spiral.png"
   inkscape:export-xdpi="96"
   inkscape:export-ydpi="96"
   xmlns:inkscape="http://www.inkscape.org/namespaces/inkscape"
   xmlns:sodipodi="http://sodipodi.sourceforge.net/DTD/sodipodi-0.dtd"
   xmlns="http://www.w3.org/2000/svg"
   xmlns:svg="http://www.w3.org/2000/svg"
   xmlns:rdf="http://www.w3.org/1999/02/22-rdf-syntax-ns#"
   xmlns:cc="http://creativecommons.org/ns#"
   xmlns:dc="http://purl.org/dc/elements/1.1/">
  <defs
     id="defs154" />
  <sodipodi:namedview
     id="base"
     pagecolor="#ffffff"
     bordercolor="#000000"
     borderopacity="0.30"
     inkscape:pageopacity="0.0"
     inkscape:pageshadow="2"
     inkscape:zoom="2.8"
     inkscape:cx="210"
     inkscape:cy="111.07143"
     inkscape:document-units="px"
     inkscape:current-layer="layer1"
     inkscape:showpageshadow="2"
     inkscape:pagecheckerboard="0"
     inkscape:deskcolor="#d1d1d1"
     showgrid="true"
     inkscape:window-width="1860"
     inkscape:window-height="1051"
     inkscape:window-x="0"
     inkscape:window-y="0"
     inkscape:window-maximized="1">
    <inkscape:grid
       type="xygrid"
       id="grid279" />
  </sodipodi:namedview>
  <metadata
     id="metadata157">
    <rdf:RDF>
      <cc:Work
         rdf:about="">
        <dc:format>image/svg+xml</dc:format>
        <dc:type
           rdf:resource="http://purl.org/dc/dcmitype/StillImage" />
      </cc:Work>
    </rdf:RDF>
  </metadata>
  <g
     inkscape:label="Layer 1"
     inkscape:groupmode="layer"
     id="layer1">
    <path
       sodipodi:type="spiral"
       style="fill:none;fill-rule:evenodd;stroke:#000000"
       id="path384"
       sodipodi:cx="173.69699"
       sodipodi:cy="107.19785"
       sodipodi:expansion="0.98000002"
       sodipodi:revolution="11.904892"
       sodipodi:radius="100.98333"
       sodipodi:argument="-74.120094"
       sodipodi:t0="0"
       d="m 173.69699,107.19785 c 0.40065,1.32966 -1.5765,1.20253 -2.19355,0.66096 -1.62159,-1.42319 -0.63818,-3.95338 0.88983,-4.98767 2.70401,-1.83031 6.29121,-0.28212 7.74137,2.38692 2.1124,3.88788 -0.06,8.64774 -3.8661,10.47408 -5.04438,2.42051 -11.00478,-0.39422 -13.19191,-5.33416 -2.73979,-6.18822 0.72361,-13.358181 6.79419,-15.898173 7.32438,-3.064596 15.70689,1.049745 18.59496,8.247923 3.39238,8.45515 -1.37352,18.0508 -9.6965,21.28372 -9.58174,3.72186 -20.39007,-1.69549 -23.96552,-11.1407 -4.05233,-10.70495 2.01602,-22.724961 12.5811,-26.641191 11.82528,-4.383355 25.05577,2.335359 29.31137,14.018171 4.71468,12.94312 -2.65369,27.38275 -15.45225,31.97658 -14.05873,5.04614 -29.70616,-2.97116 -34.63725,-16.88363 -5.37763,-15.17236 3.28786,-32.026228 18.31255,-37.293743 16.28417,-5.709079 34.34315,3.603869 39.94637,19.73919 6.04043,17.394333 -3.91927,36.657133 -21.16374,42.595413 -18.50295,6.37164 -38.96832,-4.23412 -45.24108,-22.58634 -6.70272,-19.610141 4.54845,-41.276879 24.00711,-47.8836 20.71599,-7.033616 43.58294,4.862311 50.52314,25.426177 7.36434,21.820593 -5.17574,45.886623 -26.84363,53.159863 -22.92401,7.69488 -48.18805,-5.48875 -55.79392,-28.25956 -8.02523,-24.026297 5.80139,-50.487314 29.67404,-58.425435 25.12753,-8.355393 52.78453,6.113662 61.05454,31.087147 8.68536,26.227758 -6.4256,55.079758 -32.49895,63.681328 -27.32701,9.01515 -57.3731,-6.73721 -66.30591,-33.90949 -9.34475,-28.425347 7.04853,-59.664629 35.31885,-68.928376 29.52279,-9.674161 61.9544,7.359546 71.5488,36.727061 10.00339,30.619395 -7.67029,64.242485 -38.13417,74.167265 -31.71518,10.33244 -66.52894,-7.98077 -76.78385,-39.54022 -10.66131,-32.810178 8.291,-68.81383 40.94526,-79.398608 33.90442,-10.990015 71.09719,8.600983 82.01161,42.349301 11.31854,34.997927 -8.91074,73.379097 -43.7524,84.622917 -36.09074,11.64691 -75.65958,-9.22026 -87.23258,-45.15458 -11.975109,-37.182862 9.52957,-77.938675 46.55588,-89.840652 38.27431,-12.303144 80.21642,9.838671 92.44717,47.956313 C 257.83284,125.01719 235.05425,168.14494 195.8459,180.70425 155.39057,193.663 111.07783,170.24798 98.190138,129.94954 84.903813,88.404622 108.95492,42.907506 150.34285,29.691624 192.97677,16.077874 239.65765,40.764742 253.20154,83.241578 267.14257,126.96393 241.82027,174.82798 198.25509,188.6997 153.44487,202.96787 104.39823,177.01045 90.19884,132.35748 75.603678,86.459926 102.1959,36.231269 147.93614,21.704375 194.92049,6.7823548 246.33061,34.009087 261.18485,80.836053 276.43359,128.90669 248.57264,181.49774 200.65946,196.67916 151.50304,212.25449 97.731588,183.75962 82.223144,134.76071 66.321349,84.519013 95.449866,29.567673 145.53401,13.732348 c 51.3265,-16.2281272 107.45722,13.533759 123.61928,64.702658 9.91863,31.402264 3.40097,66.456504 -16.96922,92.303484"
       transform="matrix(1.1480392,0,0,1.0602276,-16.710833,6.7687153)" />
  </g>
</svg>
