<?xml version="1.0" encoding="UTF-8" standalone="no"?>
<!-- Created with Inkscape (http://www.inkscape.org/) -->

<svg
   width="400"
   height="240"
   viewBox="0 0 105.83333 63.5"
   version="1.1"
   id="svg5"
   inkscape:version="1.2.2 (b0a8486541, 2022-12-01)"
   sodipodi:docname="Spiral19dash.svg"
   xmlns:inkscape="http://www.inkscape.org/namespaces/inkscape"
   xmlns:sodipodi="http://sodipodi.sourceforge.net/DTD/sodipodi-0.dtd"
   xmlns="http://www.w3.org/2000/svg"
   xmlns:svg="http://www.w3.org/2000/svg">
  <sodipodi:namedview
     id="namedview7"
     pagecolor="#ffffff"
     bordercolor="#666666"
     borderopacity="1.0"
     inkscape:showpageshadow="2"
     inkscape:pageopacity="0.0"
     inkscape:pagecheckerboard="0"
     inkscape:deskcolor="#d1d1d1"
     inkscape:document-units="px"
     showgrid="false"
     inkscape:zoom="3.315"
     inkscape:cx="200"
     inkscape:cy="120.06033"
     inkscape:window-width="1860"
     inkscape:window-height="1051"
     inkscape:window-x="0"
     inkscape:window-y="0"
     inkscape:window-maximized="1"
     inkscape:current-layer="layer1">
    <sodipodi:guide
       position="0,63.499999"
       orientation="120,0"
       id="guide236"
       inkscape:locked="false" />
    <sodipodi:guide
       position="0,31.749999"
       orientation="0,199.99999"
       id="guide238"
       inkscape:locked="false" />
    <sodipodi:guide
       position="52.916664,31.749999"
       orientation="-120,0"
       id="guide240"
       inkscape:locked="false" />
    <sodipodi:guide
       position="52.916664,63.499999"
       orientation="0,-199.99999"
       id="guide242"
       inkscape:locked="false" />
  </sodipodi:namedview>
  <defs
     id="defs2" />
  <g
     inkscape:label="Layer 1"
     inkscape:groupmode="layer"
     id="layer1">
    <path
       sodipodi:type="spiral"
       style="fill:none;fill-rule:evenodd;stroke:#000000;stroke-width:0.264583;stroke-dasharray:0.79374897,0.79374897;stroke-dashoffset:0"
       id="path2346"
       sodipodi:cx="52.883518"
       sodipodi:cy="31.7623"
       sodipodi:expansion="1.11"
       sodipodi:revolution="19.6"
       sodipodi:radius="29.598873"
       sodipodi:argument="-122.5532"
       sodipodi:t0="0.15856162"
       d="m 49.823852,29.454191 c 1.222253,-1.827419 3.776061,-2.239999 5.574761,-1.025939 1.97799,1.335076 2.421767,4.108355 1.095594,6.057831 -1.448799,2.129737 -4.443368,2.604935 -6.544758,1.165665 -2.282586,-1.563372 -2.789415,-4.780931 -1.236133,-7.035309 1.678748,-2.436475 5.120896,-2.975137 7.529279,-1.306982 2.591351,1.794887 3.162036,5.463132 1.378199,8.026486 -1.911752,2.747164 -5.807523,3.350054 -8.526769,1.449768 -2.90387,-2.029307 -3.539138,-6.153964 -1.521678,-9.02998 2.147525,-3.061429 6.502362,-3.729242 9.53599,-1.593915 3.219805,2.266374 3.920322,6.852628 1.66647,10.044675 -2.385833,3.378965 -7.20469,4.11234 -10.555931,1.739331 -3.538877,-2.505874 -4.305258,-7.558471 -1.812489,-11.069652 2.626479,-3.699516 7.91391,-4.499046 11.58575,-1.885935 3.860854,2.747626 4.693671,8.270944 1.959659,12.104138 -2.869295,4.022868 -8.629517,4.889104 -12.624736,2.033654 -4.185535,-2.991472 -5.08532,-8.989579 -2.107913,-13.147471 3.114139,-4.348836 9.351081,-5.282295 13.672277,-2.182429 4.512749,3.237281 5.480004,9.713978 2.257192,14.199087 -3.360883,4.677258 -10.078226,5.678427 -14.727841,2.332199 -4.842346,-3.484932 -5.877544,-10.443787 -2.407443,-15.258484 3.609417,-5.007996 10.810624,-6.077334 15.790963,-2.482918 5.174194,3.734324 6.277781,11.178702 2.558619,16.325228 -3.859644,5.340924 -11.547988,6.478867 -16.861233,2.63454 -5.508173,-3.985365 -6.680575,-11.918451 -2.710675,-17.398932 4.111476,-5.67593 12.290059,-6.882892 17.938283,-2.787022 5.84418,4.23797 7.085801,12.662788 2.863574,18.479247 -4.364836,6.012914 -13.036609,7.28929 -19.021785,2.940328 -6.18212,-4.492066 -7.493346,-13.411497 -3.017279,-19.565861 4.619652,-6.351787 13.787427,-7.697955 20.11144,-3.094425 6.521907,4.747587 7.903108,14.164379 3.17176,20.658492 -4.875862,6.692468 -14.542329,8.10879 -21.206983,3.249281 -6.863462,-5.00447 -8.314991,-14.921256 -3.326983,-21.756884 5.133405,-7.03488 15.30114,-8.521703 22.308164,-3.404865 7.206716,5.26266 8.728914,15.681962 3.482925,22.860799 -5.39223,7.378958 -16.063705,8.936615 -23.414763,3.561156 -7.5516,-5.522107 -9.144796,-16.446349 -3.639556,-23.970028 5.652285,-7.724636 16.829879,-9.353448 24.52657,-3.718123 7.898057,5.782761 9.562565,17.214278 3.796855,25.084367 -5.913528,8.071857 -17.59953,9.772136 -25.643396,3.875748 -8.24603,-6.044581 -9.982155,-17.985621 -3.9548,-26.203636 6.175915,-8.420569 18.372536,-10.192613 26.765066,-4.034007 8.595467,6.307525 10.403503,18.76026 4.113369,27.327664 -6.439408,8.770719 -19.148782,10.61482 -27.891414,4.192882 -8.94632,-6.571558 -10.826554,-19.538086 -4.272544,-28.456295 6.70397,-9.122263 19.928162,-11.0386999 29.022289,-4.352353 9.298545,6.836642 11.251252,20.318996 4.432307,29.58938 C 62.964536,54.09985 49.223528,56.088895 39.776555,49.137095 30.124457,42.034349 28.099008,28.034201 35.183915,18.410312 42.420086,8.5809513 56.679851,6.5190342 66.480978,13.737297 76.487919,21.107136 78.586369,35.626988 71.234506,45.605671 63.730758,55.790507 48.950355,57.925553 38.793803,50.439847 28.430764,42.801954 26.25906,27.760543 33.878846,17.425812 41.651118,6.8842668 56.953987,4.6758423 67.467201,12.429944 78.187554,20.336824 80.432759,35.901596 72.54411,46.593593 64.502395,57.49305 48.675281,59.775096 37.804205,51.751672 26.725351,43.574898 24.406406,27.48501 32.56483,16.434562 40.876885,5.1760232 57.229973,2.8201199 68.460082,11.113766 79.898591,19.561319 82.29151,36.178029 73.862422,47.588083 65.279155,59.206844 48.398408,61.636835 36.808126,53.07209 25.008836,44.352897 22.541716,27.207701 31.242333,15.436915 40.097662,3.4568211 57.507712,0.95251692 69.459278,9.7892155 81.620446,18.780889 84.161989,36.456193 75.189,48.588809 66.060778,60.93132 48.119824,63.510157 35.805889,54.400671 23.281771,45.135699 20.665588,26.928703 29.911773,14.433185 39.313697,1.7271985 57.787119,-0.9263846 70.464482,8.456701 82.908625,17.66717 85.932729,35.552436 77.358646,48.407463" />
  </g>
</svg>
