<?xml version="1.0" encoding="UTF-8" standalone="no"?>
<!-- Created with Inkscape (http://www.inkscape.org/) -->

<svg
   width="400"
   height="240"
   viewBox="0 0 105.83333 63.5"
   version="1.1"
   id="svg5"
   inkscape:version="1.2.2 (b0a8486541, 2022-12-01)"
   sodipodi:docname="spiral.svg"
   inkscape:export-filename="../Source/Images/shapes/Spiral.png"
   inkscape:export-xdpi="96"
   inkscape:export-ydpi="96"
   xmlns:inkscape="http://www.inkscape.org/namespaces/inkscape"
   xmlns:sodipodi="http://sodipodi.sourceforge.net/DTD/sodipodi-0.dtd"
   xmlns="http://www.w3.org/2000/svg"
   xmlns:svg="http://www.w3.org/2000/svg">
  <sodipodi:namedview
     id="namedview7"
     pagecolor="#ffffff"
     bordercolor="#666666"
     borderopacity="1.0"
     inkscape:showpageshadow="2"
     inkscape:pageopacity="0.0"
     inkscape:pagecheckerboard="0"
     inkscape:deskcolor="#d1d1d1"
     inkscape:document-units="px"
     showgrid="false"
     inkscape:zoom="4.7572176"
     inkscape:cx="212.30898"
     inkscape:cy="121.49959"
     inkscape:window-width="1860"
     inkscape:window-height="1051"
     inkscape:window-x="0"
     inkscape:window-y="0"
     inkscape:window-maximized="1"
     inkscape:current-layer="layer1">
    <sodipodi:guide
       position="0,63.499999"
       orientation="120,0"
       id="guide236"
       inkscape:locked="false" />
    <sodipodi:guide
       position="0,31.749999"
       orientation="0,199.99999"
       id="guide238"
       inkscape:locked="false" />
    <sodipodi:guide
       position="52.916664,31.749999"
       orientation="-120,0"
       id="guide240"
       inkscape:locked="false" />
    <sodipodi:guide
       position="52.916664,63.499999"
       orientation="0,-199.99999"
       id="guide242"
       inkscape:locked="false" />
  </sodipodi:namedview>
  <defs
     id="defs2" />
  <g
     inkscape:label="Layer 1"
     inkscape:groupmode="layer"
     id="layer1">
    <path
       sodipodi:type="spiral"
       style="fill:none;fill-rule:evenodd;stroke:#000000;stroke-width:0.264583"
       id="path313"
       sodipodi:cx="52.916664"
       sodipodi:cy="31.75"
       sodipodi:expansion="0.98000002"
       sodipodi:revolution="11.904892"
       sodipodi:radius="20.830212"
       sodipodi:argument="-74.111427"
       sodipodi:t0="0"
       d="m 52.916664,31.75 c 0.08026,0.274979 -0.327327,0.245222 -0.453637,0.132412 -0.331934,-0.296454 -0.124567,-0.816589 0.192458,-1.027197 0.561018,-0.372696 1.298167,-0.04694 1.592516,0.506181 0.428764,0.805713 -0.02783,1.783628 -0.816171,2.153536 -1.044812,0.49025 -2.269208,-0.100989 -2.711506,-1.123842 -0.554063,-1.281317 0.173138,-2.754044 1.429832,-3.267106 1.51625,-0.619028 3.237922,0.244607 3.820762,1.73451 0.684618,1.750074 -0.31558,3.720811 -2.038107,4.372772 -1.983042,0.750565 -4.202747,-0.386174 -4.923357,-2.34079 -0.81672,-2.215312 0.456463,-4.683784 2.642682,-5.472682 2.44699,-0.882996 5.163979,0.526499 6.020879,2.943875 0.94934,2.678153 -0.59632,5.643386 -3.244441,6.568056 -2.908859,1.015715 -6.122059,-0.665956 -7.114303,-3.544442 -1.082099,-3.139156 0.735428,-6.600044 3.843928,-7.659693 3.369078,-1.148477 7.077382,0.804752 8.20429,4.142938 1.214838,3.598658 -0.873946,7.554113 -4.44151,8.74815 -3.827921,1.281175 -8.030271,-0.94302 -9.291319,-4.739674 -1.347485,-4.056888 1.011983,-8.505886 5.037455,-9.83384 4.28558,-1.413761 8.980987,1.080845 10.375751,5.334879 1.480003,4.514012 -1.149612,9.455598 -5.631965,10.917083 -4.7422,1.54621 -9.929744,-1.218291 -11.457868,-5.928731 -1.61238,-4.970157 1.286887,-10.403447 6.225195,-11.998133 5.197894,-1.678512 10.876725,1.355406 12.537901,6.521372 1.744607,5.425422 -1.423851,11.349596 -6.817275,13.077194 -5.65275,1.810666 -11.822077,-1.492227 -13.616034,-7.112915 -1.876687,-5.879888 1.560537,-12.294183 7.408306,-14.154439 6.106843,-1.942672 12.765929,1.628783 14.692426,7.703456 2.00862,6.333623 -1.69697,13.237328 -7.998376,15.230011 -6.560235,2.074533 -13.708392,-1.765099 -15.76721,-8.293074 -2.14041,-6.786684 1.833174,-14.179132 8.58756,-16.304034 7.012976,-2.206254 14.649559,1.901194 16.840498,8.881838 2.272064,7.239118 -1.969165,15.119684 -9.175918,17.376613 -7.465115,2.337841 -15.589516,-2.037086 -17.912392,-9.469806 -2.403584,-7.690968 2.104961,-16.059063 9.763508,-18.447842 7.916687,-2.469296 16.528335,2.17279 18.982977,10.05703 2.534976,8.142271 -2.240576,16.997338 -10.350378,19.517802 -8.367727,2.600626 -17.46608,-2.308318 -20.052329,-10.643555 -2.666245,-8.593058 2.376019,-17.93457 10.936568,-20.586566 8.818268,-2.731835 18.402813,2.443681 21.120519,11.229422 2.797396,9.043358 -2.511303,18.870815 -11.522118,21.654197 -9.268335,2.862928 -19.338583,-2.578888 -22.187607,-11.814664 -2.928433,-9.493198 2.646436,-19.806123 12.107062,-22.720755 9.717952,-2.99391 20.273439,2.713949 23.253648,12.399316 3.059359,9.942599 -2.781427,20.740538 -12.69143,23.786291 C 48.150992,53.379937 37.11071,47.406283 33.999442,37.271748 30.809262,26.880165 36.915725,15.597646 47.274691,12.420894 c 10.615925,-3.2555521 22.140578,2.983661 25.382784,13.56696 1.989737,6.494952 0.582697,13.713799 -3.665189,19.008735" />
  </g>
</svg>
