<?xml version="1.0" encoding="UTF-8" standalone="no"?>
<!-- Created with Inkscape (http://www.inkscape.org/) -->

<svg
   width="400"
   height="240"
   viewBox="0 0 105.83333 63.5"
   version="1.1"
   id="svg5"
   inkscape:version="1.2.2 (b0a8486541, 2022-12-01)"
   sodipodi:docname="star30.svg"
   inkscape:export-filename="../Source/Images/shapes/star30"
   inkscape:export-xdpi="96"
   inkscape:export-ydpi="96"
   xmlns:inkscape="http://www.inkscape.org/namespaces/inkscape"
   xmlns:sodipodi="http://sodipodi.sourceforge.net/DTD/sodipodi-0.dtd"
   xmlns="http://www.w3.org/2000/svg"
   xmlns:svg="http://www.w3.org/2000/svg">
  <sodipodi:namedview
     id="namedview7"
     pagecolor="#ffffff"
     bordercolor="#666666"
     borderopacity="1.0"
     inkscape:showpageshadow="2"
     inkscape:pageopacity="0.0"
     inkscape:pagecheckerboard="0"
     inkscape:deskcolor="#d1d1d1"
     inkscape:document-units="px"
     showgrid="false"
     inkscape:zoom="2.7812867"
     inkscape:cx="199.90748"
     inkscape:cy="120.0883"
     inkscape:window-width="1860"
     inkscape:window-height="1051"
     inkscape:window-x="0"
     inkscape:window-y="0"
     inkscape:window-maximized="1"
     inkscape:current-layer="layer1">
    <sodipodi:guide
       position="0,63.499999"
       orientation="120,0"
       id="guide236"
       inkscape:locked="false" />
    <sodipodi:guide
       position="0,31.749999"
       orientation="0,199.99999"
       id="guide238"
       inkscape:locked="false" />
    <sodipodi:guide
       position="52.916664,31.749999"
       orientation="-120,0"
       id="guide240"
       inkscape:locked="false" />
    <sodipodi:guide
       position="52.916664,63.499999"
       orientation="0,-199.99999"
       id="guide242"
       inkscape:locked="false" />
  </sodipodi:namedview>
  <defs
     id="defs2" />
  <g
     inkscape:label="Layer 1"
     inkscape:groupmode="layer"
     id="layer1">
    <path
       sodipodi:type="star"
       style="fill:#0800ff;stroke-width:0.529167"
       id="path235"
       inkscape:flatsided="false"
       sodipodi:sides="30"
       sodipodi:cx="52.91666"
       sodipodi:cy="31.75"
       sodipodi:r1="30.017229"
       sodipodi:r2="2.1012061"
       sodipodi:arg1="0.64907566"
       sodipodi:arg2="0.75379542"
       inkscape:rounded="0.01"
       inkscape:randomized="0"
       d="M 76.829671,49.893923 C 76.660858,50.116413 54.639787,32.984463 54.448642,33.188088 54.257497,33.391713 72.746164,54.2867 72.534781,54.469229 72.323399,54.651759 54.345473,33.315746 54.116169,33.47518 53.886865,33.634614 67.627198,57.917004 67.382485,58.051596 67.137771,58.186188 53.988714,33.578597 53.731272,33.686872 c -0.257441,0.108275 8.134039,26.716813 7.86669,26.797585 -0.267349,0.08077 -8.012862,-26.722927 -8.287189,-26.670543 -0.274328,0.05238 2.401553,27.824149 2.123252,27.847571 -0.2783,0.02342 -2.281753,-27.804935 -2.560977,-27.810732 -0.279223,-0.0058 -3.435892,27.715435 -3.71298,27.680484 -0.277089,-0.03495 3.549079,-27.671734 3.277162,-27.735458 -0.271917,-0.06372 -9.123173,26.395424 -9.386939,26.303627 -0.263766,-0.0918 9.2248,-26.329145 8.972074,-26.448011 C 51.76964,33.532529 37.610638,57.573202 37.371722,57.42857 37.132805,57.283938 51.869075,33.592724 51.646586,33.423911 51.424096,33.255098 32.576166,53.826602 32.372541,53.635457 32.168916,53.444312 51.508844,33.334651 51.326314,33.123268 51.143785,32.911886 28.430671,49.115149 28.271237,48.885845 28.111803,48.65654 51.21014,33.007321 51.075549,32.762608 50.940957,32.517894 25.355332,43.644755 25.247057,43.387314 25.138782,43.129872 50.98602,32.62504 50.905248,32.357691 c -0.08077,-0.267349 -27.420694,5.296813 -27.473078,5.022485 -0.05238,-0.274327 27.414108,-5.17566 27.390686,-5.45396 -0.02342,-0.278301 -27.922755,-0.520019 -27.916958,-0.799243 0.0058,-0.279224 27.891124,0.637154 27.926076,0.360065 0.03495,-0.277088 -27.204459,-6.314122 -27.140735,-6.586039 0.06372,-0.271916 27.149165,6.422121 27.240963,6.158355 C 51.024,30.795588 25.635006,19.227086 25.753872,18.97436 25.872738,18.721634 50.974528,30.900771 51.11916,30.661854 51.263792,30.422938 28.834836,13.828567 29.003649,13.606077 29.172462,13.383587 51.193533,30.515537 51.384678,30.311912 51.575823,30.108287 33.087157,9.2133001 33.29854,9.0307707 33.509922,8.8482413 51.487847,30.184254 51.717151,30.02482 51.946455,29.865386 38.206123,5.5829955 38.450836,5.4484037 38.695549,5.3138119 51.844607,29.921403 52.102048,29.813128 52.35949,29.704853 43.968009,3.0963146 44.235358,3.0155427 44.502707,2.9347708 52.248221,29.73847 52.522548,29.686086 52.796875,29.633702 50.120995,1.8619372 50.399295,1.8385153 c 0.2783,-0.023422 2.281753,27.8049347 2.560977,27.8107317 0.279224,0.0058 3.435893,-27.7154354 3.712981,-27.6804836 0.277088,0.034952 -3.54908,27.6717336 -3.277163,27.7354576 0.271917,0.06372 9.123173,-26.3954245 9.38694,-26.3036266 C 63.046796,3.4923923 53.558229,29.729739 53.810955,29.848605 54.063681,29.967471 68.222682,5.9267985 68.461599,6.0714305 68.700515,6.2160625 53.964245,29.907276 54.186735,30.076089 54.409225,30.244902 73.257154,9.6733983 73.460779,9.8645432 73.664404,10.055688 54.324477,30.165349 54.507006,30.376732 54.689536,30.588114 77.402649,14.384851 77.562083,14.614155 77.721517,14.84346 54.62318,30.492679 54.757772,30.737392 54.892364,30.982106 80.477989,19.855245 80.586264,20.112686 80.694539,20.370128 54.8473,30.87496 54.928072,31.142309 c 0.08077,0.267349 27.420695,-5.296813 27.473078,-5.022485 0.05238,0.274327 -27.414108,5.17566 -27.390686,5.45396 0.02342,0.278301 27.922756,0.520019 27.916959,0.799243 -0.0058,0.279224 -27.891124,-0.637154 -27.926076,-0.360065 -0.03495,0.277088 27.204458,6.314122 27.140734,6.586039 -0.06372,0.271916 -27.149164,-6.422121 -27.240962,-6.158355 -0.0918,0.263766 25.297196,11.832268 25.178329,12.084994 C 79.960582,44.778366 54.858792,32.599229 54.71416,32.838146 54.569528,33.077062 76.998485,49.671433 76.829671,49.893923 Z" />
  </g>
</svg>
