<?xml version="1.0" encoding="UTF-8" standalone="no"?>
<!-- Created with Inkscape (http://www.inkscape.org/) -->

<svg
   width="400"
   height="240"
   viewBox="0 0 105.83333 63.5"
   version="1.1"
   id="svg5"
   inkscape:version="1.2.2 (b0a8486541, 2022-12-01)"
   sodipodi:docname="star40.svg"
   inkscape:export-filename="../Source/Images/shapes/Star40.png"
   inkscape:export-xdpi="96"
   inkscape:export-ydpi="96"
   xmlns:inkscape="http://www.inkscape.org/namespaces/inkscape"
   xmlns:sodipodi="http://sodipodi.sourceforge.net/DTD/sodipodi-0.dtd"
   xmlns="http://www.w3.org/2000/svg"
   xmlns:svg="http://www.w3.org/2000/svg">
  <sodipodi:namedview
     id="namedview7"
     pagecolor="#ffffff"
     bordercolor="#666666"
     borderopacity="1.0"
     inkscape:showpageshadow="2"
     inkscape:pageopacity="0.0"
     inkscape:pagecheckerboard="0"
     inkscape:deskcolor="#d1d1d1"
     inkscape:document-units="px"
     showgrid="false"
     inkscape:zoom="0.98333333"
     inkscape:cx="200.33898"
     inkscape:cy="120"
     inkscape:window-width="1860"
     inkscape:window-height="1051"
     inkscape:window-x="0"
     inkscape:window-y="0"
     inkscape:window-maximized="1"
     inkscape:current-layer="layer1">
    <sodipodi:guide
       position="0,63.499999"
       orientation="120,0"
       id="guide236"
       inkscape:locked="false" />
    <sodipodi:guide
       position="0,31.749999"
       orientation="0,199.99999"
       id="guide238"
       inkscape:locked="false" />
    <sodipodi:guide
       position="52.916664,31.749999"
       orientation="-120,0"
       id="guide240"
       inkscape:locked="false" />
    <sodipodi:guide
       position="52.916664,63.499999"
       orientation="0,-199.99999"
       id="guide242"
       inkscape:locked="false" />
  </sodipodi:namedview>
  <defs
     id="defs2" />
  <g
     inkscape:label="Layer 1"
     inkscape:groupmode="layer"
     id="layer1">
    <path
       sodipodi:type="star"
       style="fill:#0800ff;stroke-width:0.264999"
       id="path237"
       inkscape:flatsided="false"
       sodipodi:sides="40"
       sodipodi:cx="52.91666"
       sodipodi:cy="31.75"
       sodipodi:r1="26.514786"
       sodipodi:r2="13.257394"
       sodipodi:arg1="0.29631796"
       sodipodi:arg2="0.37485777"
       inkscape:rounded="0.33"
       inkscape:randomized="0"
       d="M 78.275882,39.492334 C 76.990545,43.702324 66.865144,32.507899 65.253457,36.604065 63.64177,40.70023 78.6806,39.406983 76.7525,43.364069 74.8244,47.321156 66.574853,34.680592 64.342227,38.474203 c -2.232625,3.793612 12.82336,4.868878 10.299974,8.475625 -2.523387,3.606747 -8.693949,-10.168705 -11.492538,-6.771058 -2.79859,3.397646 11.903822,6.814948 8.847283,9.982546 -3.056539,3.167597 -6.996175,-11.403544 -10.291819,-8.485524 -3.295643,2.918019 10.691174,8.593213 7.176745,11.243664 -3.514429,2.650451 -5.126134,-12.35759 -8.837681,-9.991048 -3.711548,2.366541 9.215273,10.159885 5.32949,12.227927 -3.885783,2.068041 -3.129869,-13.007352 -7.16593,-11.250561 -4.036061,1.756792 7.512461,11.476387 3.351006,12.911097 -4.161455,1.434711 -1.056537,-13.336829 -5.31773,-12.233045 -4.261193,1.103783 5.624668,12.5103 1.290009,13.276352 -4.334659,0.766052 1.04281,-13.337909 -3.33859,-12.914313 -4.381401,0.423597 3.598377,13.236171 -0.802752,13.314701 C 48.988565,58.339096 56.506174,45.25 52.11245,44.982979 47.718727,44.715959 53.595932,58.6191 49.236704,58.008176 44.877475,57.397251 54.350116,45.645316 50.052258,44.694253 45.754399,43.74319 49.384316,58.394559 45.174326,57.109222 40.964337,55.823885 52.158761,45.698483 48.062596,44.086797 43.96643,42.47511 45.259678,57.51394 41.302591,55.58584 c -3.957087,-1.9281 8.683478,-10.177647 4.889866,-12.410273 -3.793611,-2.232626 -4.868877,12.82336 -8.475624,10.299973 -3.606748,-2.523386 10.168704,-8.693948 6.771058,-11.492538 -3.397646,-2.79859 -6.814949,11.903823 -9.982547,8.847284 -3.167597,-3.056539 11.403544,-6.996175 8.485525,-10.291819 -2.91802,-3.295644 -8.593214,10.691174 -11.243665,7.176745 -2.650451,-3.51443 12.35759,-5.126134 9.991049,-8.837682 -2.366542,-3.711547 -10.159885,9.215274 -12.227927,5.329491 -2.068042,-3.885783 13.007352,-3.12987 11.25056,-7.16593 -1.756792,-4.036061 -11.476386,7.512461 -12.911097,3.351006 -1.43471,-4.161456 13.336829,-1.056538 12.233046,-5.317731 -1.103784,-4.261193 -12.510301,5.624669 -13.276353,1.29001 -0.766051,-4.334659 13.33791,1.04281 12.914313,-3.338591 -0.423597,-4.3814 -13.23617,3.598377 -13.314701,-0.802752 -0.07853,-4.401129 13.010567,3.11648 13.277587,-1.277243 0.267021,-4.393723 -13.636121,1.483482 -13.025196,-2.875747 0.610925,-4.359228 12.362859,5.113412 13.313922,0.815554 0.951063,-4.297858 -13.700305,-0.667941 -12.414968,-4.877931 1.285337,-4.20999 11.410738,6.984435 13.022425,2.888269 1.611687,-4.096165 -13.427143,-2.802918 -11.499043,-6.760004 1.928099,-3.957087 10.177647,8.683477 12.410272,4.889866 2.232626,-3.793612 -12.823359,-4.868878 -10.299973,-8.475625 2.523386,-3.606747 8.693948,10.168705 11.492538,6.771058 2.79859,-3.397646 -11.903823,-6.814948 -8.847284,-9.982546 3.056539,-3.167597 6.996176,11.403544 10.291819,8.485524 3.295644,-2.918019 -10.691174,-8.593213 -7.176744,-11.243664 3.514429,-2.6504514 5.126133,12.35759 8.837681,9.991048 C 49.500677,18.205051 36.573857,10.411707 40.45964,8.3436655 44.345422,6.2756237 43.589509,21.351017 47.62557,19.594226 51.661631,17.837434 40.113108,8.1178393 44.274564,6.6831289 48.436019,5.2484185 45.331101,20.019958 49.592294,18.916174 53.853487,17.812391 43.967626,6.4058736 48.302285,5.6398219 52.636944,4.8737702 47.259475,18.977731 51.640875,18.554135 56.022276,18.130538 48.042498,5.3179644 52.443627,5.2394341 56.844756,5.1609039 49.327147,18.25 53.72087,18.517021 58.114594,18.784041 52.237388,4.8808996 56.596617,5.4918245 60.955846,6.1027493 51.483205,17.854684 55.781063,18.805747 60.078921,19.75681 56.449005,5.1054413 60.658994,6.3907782 64.868984,7.6761152 53.67456,17.801517 57.770725,19.413203 61.86689,21.02489 60.573643,5.9860604 64.53073,7.9141602 68.487816,9.84226 55.847252,18.091807 59.640863,20.324433 c 3.793612,2.232626 4.868878,-12.8233598 8.475625,-10.299973 3.606747,2.523386 -10.168704,8.693948 -6.771058,11.492538 3.397646,2.79859 6.814949,-11.9038229 9.982546,-8.847284 3.167598,3.056539 -11.403544,6.996175 -8.485524,10.291819 2.918019,3.295644 8.593214,-10.691174 11.243665,-7.176745 2.650451,3.51443 -12.357591,5.126134 -9.991049,8.837682 2.366542,3.711547 10.159885,-9.215274 12.227927,-5.329491 2.068042,3.885783 -13.007352,3.12987 -11.25056,7.16593 1.756791,4.036061 11.476386,-7.512461 12.911096,-3.351006 1.434711,4.161456 -13.336829,1.056538 -12.233045,5.317731 1.103784,4.261193 12.510301,-5.624669 13.276352,-1.29001 0.766052,4.334659 -13.337909,-1.04281 -12.914312,3.338591 0.423596,4.3814 13.23617,-3.598377 13.3147,0.802752 0.07853,4.401129 -13.010566,-3.11648 -13.277587,1.277243 -0.26702,4.393723 13.636122,-1.483482 13.025197,2.875747 -0.610925,4.359228 -12.36286,-5.113412 -13.313923,-0.815554 -0.951062,4.297858 13.700306,0.667941 12.414969,4.877931 z" />
  </g>
</svg>
