<?xml version="1.0" encoding="UTF-8" standalone="no"?>
<!-- Created with Inkscape (http://www.inkscape.org/) -->

<svg
   width="400"
   height="240"
   viewBox="0 0 105.83333 63.5"
   version="1.1"
   id="svg5"
   inkscape:version="1.2.2 (b0a8486541, 2022-12-01)"
   sodipodi:docname="star1836.svg"
   inkscape:export-filename="../Source/Images/shapes/Star1836.png"
   inkscape:export-xdpi="96"
   inkscape:export-ydpi="96"
   xmlns:inkscape="http://www.inkscape.org/namespaces/inkscape"
   xmlns:sodipodi="http://sodipodi.sourceforge.net/DTD/sodipodi-0.dtd"
   xmlns="http://www.w3.org/2000/svg"
   xmlns:svg="http://www.w3.org/2000/svg">
  <sodipodi:namedview
     id="namedview7"
     pagecolor="#ffffff"
     bordercolor="#666666"
     borderopacity="1.0"
     inkscape:showpageshadow="2"
     inkscape:pageopacity="0.0"
     inkscape:pagecheckerboard="0"
     inkscape:deskcolor="#d1d1d1"
     inkscape:document-units="px"
     showgrid="false"
     inkscape:zoom="2.7812867"
     inkscape:cx="193.07611"
     inkscape:cy="120.0883"
     inkscape:window-width="1860"
     inkscape:window-height="1051"
     inkscape:window-x="0"
     inkscape:window-y="0"
     inkscape:window-maximized="1"
     inkscape:current-layer="layer1">
    <sodipodi:guide
       position="0,63.499999"
       orientation="120,0"
       id="guide236"
       inkscape:locked="false" />
    <sodipodi:guide
       position="0,31.749999"
       orientation="0,199.99999"
       id="guide238"
       inkscape:locked="false" />
    <sodipodi:guide
       position="52.916664,31.749999"
       orientation="-120,0"
       id="guide240"
       inkscape:locked="false" />
    <sodipodi:guide
       position="52.916664,63.499999"
       orientation="0,-199.99999"
       id="guide242"
       inkscape:locked="false" />
  </sodipodi:namedview>
  <defs
     id="defs2" />
  <g
     inkscape:label="Layer 1"
     inkscape:groupmode="layer"
     id="layer1">
    <path
       sodipodi:type="star"
       style="fill:#fdfdff;stroke:#000000;stroke-width:0.529167"
       id="path235"
       inkscape:flatsided="false"
       sodipodi:sides="36"
       sodipodi:cx="52.916664"
       sodipodi:cy="31.75"
       sodipodi:r1="27.226374"
       sodipodi:r2="6.8065929"
       sodipodi:arg1="0.40681832"
       sodipodi:arg2="0.49408478"
       inkscape:rounded="0"
       inkscape:randomized="0"
       d="M 77.920942,42.523186 58.90921,34.977864 75.670326,46.701464 58.257657,35.96942 72.728353,50.42545 57.44382,36.832771 69.184411,53.581991 56.492429,37.541685 65.146182,56.075179 55.432389,38.074621 60.736365,57.829258 54.295911,38.415387 56.08895,58.790932 53.117525,38.553629 51.345148,58.930982 51.933035,38.485145 46.649095,58.24515 50.778433,38.212018 42.143478,56.754278 49.6888,37.742546 37.9652,54.503662 48.697244,37.090993 34.241214,51.561689 47.833893,36.277156 31.084673,48.017747 47.124979,35.325765 28.591485,43.979518 46.592043,34.265725 26.837406,39.569701 46.251277,33.129247 25.875732,34.922286 46.113035,31.950861 25.735682,30.178484 46.181519,30.766371 26.421514,25.482431 46.454646,29.611769 27.912386,20.976814 46.924118,28.522136 30.163002,16.798536 47.575671,27.53058 33.104975,13.07455 48.389508,26.667229 36.648917,9.9180088 49.340899,25.958315 40.687146,7.4248213 50.400939,25.425379 45.096963,5.6707419 51.537417,25.084613 49.744378,4.7090676 52.715803,24.946371 54.48818,4.5690184 53.900293,25.014855 59.184233,5.2548496 55.054895,25.287982 63.68985,6.7457224 56.144528,25.757454 67.868128,8.9963376 57.136084,26.409007 71.592114,11.938311 57.999435,27.222844 74.748655,15.482253 58.708349,28.174235 77.241843,19.520482 59.241285,29.234275 78.995922,23.930299 59.582051,30.370753 79.957596,28.577714 59.720293,31.549139 80.097646,33.321516 59.651809,32.733629 79.411814,38.017569 59.378682,33.888231 Z" />
    <path
       sodipodi:type="star"
       style="fill:#fdfdff;stroke:#000000;stroke-width:0.529167"
       id="path791"
       inkscape:flatsided="false"
       sodipodi:sides="18"
       sodipodi:cx="52.91666"
       sodipodi:cy="31.75"
       sodipodi:r1="27.606647"
       sodipodi:r2="6.9016614"
       sodipodi:arg1="-0.3804122"
       sodipodi:arg2="-0.20587927"
       inkscape:rounded="0.01"
       inkscape:randomized="0"
       d="m 78.549754,21.499563 c 0.0774,0.193541 -18.919796,8.635503 -18.877184,8.839545 0.04261,0.204041 20.830643,0.337325 20.837176,0.545666 0.0065,0.208341 -20.732309,1.643768 -20.762054,1.850078 -0.02974,0.20631 19.45903,7.441482 19.393912,7.639493 -0.06512,0.19801 -20.0442,-5.546231 -20.142713,-5.362536 -0.09851,0.183694 15.74037,13.648085 15.611456,13.811883 C 74.481432,48.98749 57.671883,36.75642 57.516484,36.895343 57.361085,37.034266 67.639673,55.103872 67.462511,55.2137 67.285349,55.323528 55.672811,38.080877 55.479269,38.158273 c -0.193541,0.0774 3.285003,20.572755 3.080962,20.615367 -0.204042,0.04261 -5.218923,-20.131902 -5.427264,-20.125369 -0.208341,0.0065 -3.949404,20.455603 -4.155715,20.425858 -0.20631,-0.02974 1.981333,-20.702776 1.783322,-20.767894 -0.19801,-0.06512 -10.707454,17.871204 -10.891149,17.772691 -0.183695,-0.09851 8.94261,-18.77659 8.778813,-18.905505 C 48.48444,37.044507 32.47421,50.304694 32.335287,50.149295 32.196364,49.993896 47.160564,35.563624 47.050736,35.386462 46.940908,35.2093 27.360962,42.193979 27.283566,42.000437 c -0.0774,-0.193541 18.919796,-8.635503 18.877185,-8.839545 -0.04261,-0.204041 -20.830643,-0.337325 -20.837176,-0.545666 -0.0065,-0.208341 20.732309,-1.643768 20.762053,-1.850078 0.02974,-0.20631 -19.459029,-7.441482 -19.393911,-7.639493 0.06512,-0.19801 20.044199,5.546231 20.142712,5.362536 C 46.932942,28.304497 31.09406,14.840106 31.222974,14.676308 31.351888,14.51251 48.161438,26.74358 48.316837,26.604657 48.472236,26.465734 38.193648,8.3961279 38.37081,8.2862999 38.547972,8.1764719 50.160509,25.419123 50.354051,25.341727 50.547593,25.264331 47.069049,4.7689719 47.27309,4.7263603 c 0.204041,-0.042612 5.218923,20.1319017 5.427264,20.1253687 0.208341,-0.0065 3.949404,-20.4556029 4.155714,-20.4258585 0.20631,0.029744 -1.981332,20.7027765 -1.783322,20.7678945 0.198011,0.06512 10.707455,-17.8712038 10.891149,-17.772691 0.183695,0.098513 -8.94261,18.77659 -8.778812,18.905505 0.163798,0.128914 16.174027,-13.131273 16.312951,-12.975874 0.138923,0.155399 -14.825277,14.585671 -14.715449,14.762833 0.109828,0.177162 19.689774,-6.807517 19.767169,-6.613975 z" />
  </g>
</svg>
