<?xml version="1.0" encoding="UTF-8" standalone="no"?>
<!-- Created with Inkscape (http://www.inkscape.org/) -->

<svg
   width="400"
   height="240"
   viewBox="0 0 105.83333 63.5"
   version="1.1"
   id="svg5"
   inkscape:version="1.2.2 (b0a8486541, 2022-12-01)"
   sodipodi:docname="Star816.svg"
   inkscape:export-filename="../Source/Resources/shapes/Star816.png"
   inkscape:export-xdpi="96"
   inkscape:export-ydpi="96"
   xmlns:inkscape="http://www.inkscape.org/namespaces/inkscape"
   xmlns:sodipodi="http://sodipodi.sourceforge.net/DTD/sodipodi-0.dtd"
   xmlns="http://www.w3.org/2000/svg"
   xmlns:svg="http://www.w3.org/2000/svg">
  <sodipodi:namedview
     id="namedview7"
     pagecolor="#ffffff"
     bordercolor="#666666"
     borderopacity="1.0"
     inkscape:showpageshadow="2"
     inkscape:pageopacity="0.0"
     inkscape:pagecheckerboard="0"
     inkscape:deskcolor="#d1d1d1"
     inkscape:document-units="px"
     showgrid="false"
     inkscape:zoom="2.7812867"
     inkscape:cx="199.90748"
     inkscape:cy="120.0883"
     inkscape:window-width="1860"
     inkscape:window-height="1051"
     inkscape:window-x="0"
     inkscape:window-y="0"
     inkscape:window-maximized="1"
     inkscape:current-layer="layer2">
    <sodipodi:guide
       position="0,63.499999"
       orientation="120,0"
       id="guide236"
       inkscape:locked="false" />
    <sodipodi:guide
       position="0,31.749999"
       orientation="0,199.99999"
       id="guide238"
       inkscape:locked="false" />
    <sodipodi:guide
       position="52.916664,31.749999"
       orientation="-120,0"
       id="guide240"
       inkscape:locked="false" />
    <sodipodi:guide
       position="52.916664,63.499999"
       orientation="0,-199.99999"
       id="guide242"
       inkscape:locked="false" />
  </sodipodi:namedview>
  <defs
     id="defs2" />
  <g
     inkscape:label="Layer 1"
     inkscape:groupmode="layer"
     id="layer1">
    <path
       sodipodi:type="star"
       style="fill:#fdfdff;stroke:#000000;stroke-width:0.79375"
       id="path239"
       inkscape:flatsided="false"
       sodipodi:sides="8"
       sodipodi:cx="52.91666"
       sodipodi:cy="31.75"
       sodipodi:r1="30.633135"
       sodipodi:r2="0.30633134"
       sodipodi:arg1="0.31899904"
       sodipodi:arg2="0.71169812"
       inkscape:rounded="0.01"
       inkscape:randomized="0"
       d="m 82.004348,41.357049 c -0.09518,0.288192 -28.657493,-9.636807 -28.855717,-9.406978 -0.198224,0.22983 13.814008,27.024762 13.542921,27.16124 C 66.420464,59.247788 53.241896,32.033152 52.939217,32.0555 52.636537,32.077848 43.597803,60.932871 43.309611,60.837687 43.02142,60.742504 52.946418,32.180195 52.716589,31.981971 52.48676,31.783746 25.691827,45.795979 25.55535,45.524891 25.418872,45.253804 52.633509,32.075236 52.611161,31.772556 52.588813,31.469877 23.733789,22.431143 23.828973,22.142951 23.924157,21.854759 52.486465,31.779758 52.68469,31.549929 52.882914,31.320099 38.870682,4.5251667 39.141769,4.3886894 39.412856,4.2522121 52.591425,31.466848 52.894104,31.4445 c 0.30268,-0.02235 9.341414,-28.877371 9.629605,-28.7821874 0.288192,0.095184 -9.636807,28.6574924 -9.406977,28.8557164 0.229829,0.198225 27.024762,-13.814008 27.161239,-13.54292 0.136477,0.271087 -27.078159,13.449655 -27.055811,13.752335 0.02235,0.302679 28.877371,9.341413 28.782188,9.629605 z" />
  </g>
  <g
     inkscape:groupmode="layer"
     id="layer2"
     inkscape:label="Layer 2">
    <path
       sodipodi:type="star"
       style="fill:#fdfdff;stroke:#000000;stroke-width:0.79375"
       id="path246"
       inkscape:flatsided="false"
       sodipodi:sides="16"
       sodipodi:cx="52.894108"
       sodipodi:cy="31.444502"
       sodipodi:r1="18.746664"
       sodipodi:r2="0.18746665"
       sodipodi:arg1="-0.086562963"
       sodipodi:arg2="0.10978658"
       inkscape:rounded="0.01"
       inkscape:randomized="0"
       d="m 71.57058,29.823761 c 0.01605,0.184933 -18.469796,1.45677 -18.490134,1.641281 -0.02034,0.184511 17.744647,5.452269 17.688703,5.629267 -0.05594,0.176998 -17.621348,-5.722205 -17.710748,-5.559522 -0.0894,0.162682 14.307423,11.827822 14.188004,11.969938 -0.11942,0.142116 -14.09021,-12.030026 -14.23506,-11.913938 -0.144851,0.116087 8.692023,16.402697 8.527309,16.488295 -0.164715,0.0856 -8.413965,-16.506385 -8.592214,-16.454566 -0.178249,0.05182 1.753342,18.48041 1.568409,18.496458 -0.184934,0.01605 -1.45677,-18.469796 -1.641281,-18.490134 -0.184511,-0.02034 -5.45227,17.744647 -5.629267,17.688703 -0.176998,-0.05594 5.722204,-17.621348 5.559522,-17.710748 -0.162683,-0.0894 -11.827823,14.307424 -11.969938,14.188004 -0.142116,-0.11942 12.030025,-14.09021 11.913938,-14.23506 -0.116087,-0.144851 -16.402697,8.692023 -16.488295,8.527309 -0.0856,-0.164715 16.506384,-8.413965 16.454566,-8.592214 -0.05182,-0.178249 -18.48041,1.753342 -18.496458,1.568409 -0.01605,-0.184934 18.469795,-1.45677 18.490134,-1.641281 0.02034,-0.184511 -17.744647,-5.45227 -17.688703,-5.629267 0.05594,-0.176998 17.621348,5.722204 17.710747,5.559522 0.0894,-0.162683 -14.307423,-11.827823 -14.188003,-11.969938 0.119419,-0.142116 14.09021,12.030025 14.23506,11.913938 0.14485,-0.116087 -8.692024,-16.402697 -8.527309,-16.488295 0.164715,-0.0856 8.413965,16.506384 8.592214,16.454566 0.178249,-0.05182 -1.753342,-18.48041 -1.568409,-18.496458 0.184933,-0.01605 1.45677,18.469795 1.641281,18.490134 0.184511,0.02034 5.452269,-17.744647 5.629267,-17.688703 0.176997,0.05594 -5.722205,17.621348 -5.559522,17.710747 0.162682,0.0894 11.827822,-14.307423 11.969938,-14.188003 0.142116,0.119419 -12.030026,14.09021 -11.913938,14.23506 0.116087,0.14485 16.402697,-8.692024 16.488294,-8.527309 0.0856,0.164715 -16.506384,8.413965 -16.454565,8.592214 0.05182,0.178249 18.480409,-1.753342 18.496458,-1.568409 z" />
  </g>
</svg>
