<?xml version="1.0" encoding="UTF-8" standalone="no"?>
<!-- Created with Inkscape (http://www.inkscape.org/) -->

<svg
   width="400"
   height="240"
   viewBox="0 0 105.83333 63.5"
   version="1.1"
   id="svg5"
   inkscape:version="1.2.2 (b0a8486541, 2022-12-01)"
   sodipodi:docname="star.svg"
   inkscape:export-filename="../Source/Images/shapes/Polystar.png"
   inkscape:export-xdpi="96"
   inkscape:export-ydpi="96"
   xmlns:inkscape="http://www.inkscape.org/namespaces/inkscape"
   xmlns:sodipodi="http://sodipodi.sourceforge.net/DTD/sodipodi-0.dtd"
   xmlns="http://www.w3.org/2000/svg"
   xmlns:svg="http://www.w3.org/2000/svg">
  <sodipodi:namedview
     id="namedview7"
     pagecolor="#ffffff"
     bordercolor="#666666"
     borderopacity="1.0"
     inkscape:showpageshadow="2"
     inkscape:pageopacity="0.0"
     inkscape:pagecheckerboard="0"
     inkscape:deskcolor="#d1d1d1"
     inkscape:document-units="px"
     showgrid="false"
     inkscape:zoom="2.7812867"
     inkscape:cx="199.90748"
     inkscape:cy="120.0883"
     inkscape:window-width="1860"
     inkscape:window-height="1051"
     inkscape:window-x="0"
     inkscape:window-y="0"
     inkscape:window-maximized="1"
     inkscape:current-layer="layer1">
    <sodipodi:guide
       position="0,63.499999"
       orientation="120,0"
       id="guide236"
       inkscape:locked="false" />
    <sodipodi:guide
       position="0,31.749999"
       orientation="0,199.99999"
       id="guide238"
       inkscape:locked="false" />
    <sodipodi:guide
       position="52.916664,31.749999"
       orientation="-120,0"
       id="guide240"
       inkscape:locked="false" />
    <sodipodi:guide
       position="52.916664,63.499999"
       orientation="0,-199.99999"
       id="guide242"
       inkscape:locked="false" />
  </sodipodi:namedview>
  <defs
     id="defs2" />
  <g
     inkscape:label="Layer 1"
     inkscape:groupmode="layer"
     id="layer1">
    <path
       sodipodi:type="star"
       style="fill:#0800ff;stroke-width:0.264999"
       id="path242"
       inkscape:flatsided="false"
       sodipodi:sides="80"
       sodipodi:cx="52.91666"
       sodipodi:cy="31.75"
       sodipodi:r1="29.763617"
       sodipodi:r2="3.8692701"
       sodipodi:arg1="0.44769196"
       sodipodi:arg2="0.48696187"
       inkscape:rounded="0"
       inkscape:randomized="0"
       d="M 79.747031,44.634256 56.336161,33.560598 78.653435,46.699625 56.183562,33.823308 77.401163,48.672824 56.010821,34.073234 75.997936,50.541689 55.819004,34.308838 74.452405,52.294696 55.609293,34.528665 72.7741,53.921039 55.382981,34.731361 70.973366,55.41069 55.141463,34.915676 69.061307,56.754465 54.886229,35.080473 67.049711,57.944079 54.618852,35.224737 l 10.332128,23.74746 -10.61,-23.624619 8.437073,24.484904 -8.723727,-24.384244 6.490001,25.071391 -6.783668,-24.993531 4.502916,25.503304 -4.801787,-25.448725 2.488068,25.77798 -2.7903,-25.747018 0.457882,25.893727 -0.761612,-25.886574 -1.575128,25.84983 1.271774,-25.866529 -3.598427,25.64656 3.297318,-25.687009 -5.59954,25.285172 L 51.954356,35.497695 44.388225,60.265586 51.663281,35.410641 42.177209,59.508549 51.379935,35.301017 40.032404,58.580371 51.106062,35.169501 37.967035,57.486775 50.843353,35.016902 35.993836,56.234503 50.593426,34.844161 34.124971,54.831276 50.357823,34.652344 32.371964,53.285745 50.137995,34.442633 30.745621,51.607439 49.935299,34.216321 29.25597,49.806706 49.750985,33.974803 27.912196,47.894647 49.586187,33.719569 26.722582,45.88305 49.441924,33.452191 25.694463,43.784319 l 23.62462,-10.61 -24.484905,8.437073 24.384244,-8.723726 -25.071391,6.490001 24.993531,-6.783669 -25.503304,4.502916 25.448725,-4.801787 -25.77798,2.488069 25.747019,-2.7903 -25.893727,0.457881 25.886573,-0.761611 -25.84983,-1.575128 25.86653,1.271774 -25.646561,-3.598427 25.687009,3.297318 -25.285171,-5.59954 25.34912,5.302532 -24.767891,-7.56613 24.854945,7.275056 L 25.158111,21.010548 49.365643,30.213274 26.086289,18.865744 49.49716,29.939402 27.179885,16.800375 49.649759,29.676692 28.432157,14.827176 49.822499,29.426766 29.835384,12.958311 50.014316,29.191162 31.380915,11.205304 50.224027,28.971335 33.059221,9.5789609 50.450339,28.768639 34.859955,8.0893101 50.691857,28.584324 36.772014,6.7455353 50.947092,28.419527 38.78361,5.5559213 51.214469,28.275263 40.882341,4.5278026 51.492341,28.152422 43.055268,3.6675177 51.778994,28.051762 45.288993,2.9803707 52.072662,27.973902 47.569746,2.470598 52.371533,27.919323 49.883464,2.1413426 52.673765,27.888361 52.215883,1.9946344 52.977494,27.881208 54.552622,2.0313779 53.280849,27.897907 56.879275,2.2513466 53.581958,27.938356 59.181498,2.6531843 53.878965,28.002305 61.445095,3.2344136 54.170039,28.089359 63.656112,3.9914509 54.453386,28.198983 65.800916,4.9196289 54.727258,28.330499 67.866285,6.0132251 54.989968,28.483098 69.839485,7.265497 55.239895,28.655839 71.708349,8.6687241 55.475498,28.847656 73.461357,10.214255 55.695325,29.057367 75.087699,11.892561 55.898021,29.283679 76.57735,13.693294 56.082336,29.525197 77.921125,15.605353 56.247133,29.780431 79.110739,17.61695 56.391397,30.047809 80.138858,19.715681 l -23.62462,10.61 24.484905,-8.437073 -24.384244,8.723726 25.071391,-6.490001 -24.993531,6.783669 25.503303,-4.502916 -25.448725,4.801787 25.777981,-2.488069 -25.747019,2.7903 25.893727,-0.457881 -25.886574,0.761611 25.84983,1.575128 -25.866529,-1.271774 25.646561,3.598427 -25.68701,-3.297318 25.285172,5.59954 -25.34912,-5.302532 24.767891,7.56613 -24.854946,-7.275056 24.097908,9.486073 -24.207531,-9.202726 z" />
  </g>
</svg>
