<?xml version="1.0" encoding="UTF-8" standalone="no"?>
<!-- Created with Inkscape (http://www.inkscape.org/) -->

<svg
   width="400"
   height="240"
   viewBox="0 0 400 240"
   version="1.1"
   id="svg160"
   inkscape:version="1.2.2 (b0a8486541, 2022-12-01)"
   sodipodi:docname="star.svg"
   inkscape:export-filename="../Source/Images/Star.png"
   inkscape:export-xdpi="96"
   inkscape:export-ydpi="96"
   xmlns:inkscape="http://www.inkscape.org/namespaces/inkscape"
   xmlns:sodipodi="http://sodipodi.sourceforge.net/DTD/sodipodi-0.dtd"
   xmlns="http://www.w3.org/2000/svg"
   xmlns:svg="http://www.w3.org/2000/svg"
   xmlns:rdf="http://www.w3.org/1999/02/22-rdf-syntax-ns#"
   xmlns:cc="http://creativecommons.org/ns#"
   xmlns:dc="http://purl.org/dc/elements/1.1/">
  <defs
     id="defs154" />
  <sodipodi:namedview
     id="base"
     pagecolor="#ffffff"
     bordercolor="#000000"
     borderopacity="0.30"
     inkscape:pageopacity="0.0"
     inkscape:pageshadow="2"
     inkscape:zoom="2.8"
     inkscape:cx="195.71429"
     inkscape:cy="111.07143"
     inkscape:document-units="px"
     inkscape:current-layer="layer1"
     inkscape:showpageshadow="2"
     inkscape:pagecheckerboard="0"
     inkscape:deskcolor="#d1d1d1"
     showgrid="true"
     inkscape:window-width="1860"
     inkscape:window-height="1051"
     inkscape:window-x="0"
     inkscape:window-y="0"
     inkscape:window-maximized="1">
    <inkscape:grid
       type="xygrid"
       id="grid279" />
  </sodipodi:namedview>
  <metadata
     id="metadata157">
    <rdf:RDF>
      <cc:Work
         rdf:about="">
        <dc:format>image/svg+xml</dc:format>
        <dc:type
           rdf:resource="http://purl.org/dc/dcmitype/StillImage" />
      </cc:Work>
    </rdf:RDF>
  </metadata>
  <g
     inkscape:label="Layer 1"
     inkscape:groupmode="layer"
     id="layer1">
    <path
       sodipodi:type="star"
       style="fill:#0800ff;stroke-width:1.00157"
       id="path530"
       inkscape:flatsided="false"
       sodipodi:sides="80"
       sodipodi:cx="188.09872"
       sodipodi:cy="115.78352"
       sodipodi:r1="118.7518"
       sodipodi:r2="1.187518"
       sodipodi:arg1="0.68813182"
       sodipodi:arg2="0.72740173"
       inkscape:rounded="0.04"
       inkscape:randomized="0"
       d="m 279.82663,191.20223 c -2.9866,3.63245 -87.71403,-78.14149 -90.84094,-74.62909 -3.12691,3.5124 87.90329,78.20656 84.64089,81.59349 -3.26239,3.38693 -81.31273,-84.78257 -84.70558,-81.52633 -3.39285,3.25624 81.4963,84.86228 77.97823,87.9828 -3.51808,3.12053 -74.41011,-90.90093 -78.04799,-87.92093 -3.63787,2.98 74.58686,90.99481 70.8348,93.82969 -3.75207,2.83488 -67.04872,-96.45887 -70.90919,-93.77348 -3.86047,2.68539 67.21756,96.56632 63.25464,99.09808 -3.96292,2.53175 -59.27396,-101.4221 -63.33322,-99.04788 -4.05926,2.37422 59.43385,101.54247 55.2845,103.75549 -4.14934,2.21303 -51.13375,-105.76003 -55.36677,-103.71161 -4.23303,2.04842 51.2837,105.89257 46.97351,107.77322 -4.31018,1.88065 -42.67828,-109.44591 -47.05898,-107.73593 -4.38069,1.70998 42.81738,109.58981 38.37293,111.12649 -4.44445,1.53668 -33.9597,-112.45703 -38.46105,-111.09602 -4.50135,1.36101 34.08707,112.61139 29.53575,113.79463 -4.55132,1.18323 -25.03173,-114.77481 -29.62599,-113.77117 -4.59426,1.00364 25.14659,114.93869 20.51647,115.76119 -4.63012,0.82249 -15.94944,-116.38496 -20.60828,-115.74488 -4.65884,0.64008 16.05109,116.55735 11.37071,117.01404 -4.68038,0.45668 -6.76881,-117.27757 -11.46351,-117.00499 -4.6947,0.27259 6.85663,117.4574 2.15484,117.54546 -4.70178,0.0881 2.45355,-117.44711 -2.24807,-117.54371 -4.70162,-0.0966 -2.38011,117.63328 -7.07431,117.35217 -4.6942,-0.28111 11.66078,-116.89256 6.98123,-117.35774 -4.67954,-0.46519 -11.60217,117.08391 -16.25984,116.43537 -4.65767,-0.64855 20.79611,-115.61733 16.16749,-116.44823 -4.62862,-0.83091 -20.7527,115.81269 -25.34513,114.8007 -4.59243,-1.01198 29.80323,-113.62927 25.25407,-114.82077 -4.54916,-1.1915 -29.77529,113.82744 -34.27416,112.45826 -4.49888,-1.36918 38.62661,-110.94065 34.18496,-112.48541 -4.44165,-1.54475 -38.6143,111.14041 -42.99188,109.42247 -4.37758,-1.71794 47.21184,-107.56805 42.90508,-109.45653 -4.30676,-1.88848 -47.21524,107.76815 -51.44454,105.71205 -4.2293,-2.05611 55.506,-103.53226 51.36068,-105.75282 -4.14531,-2.22056 -55.52508,103.73148 -59.58002,101.34988 -4.05494,-2.38159 63.45793,-98.85815 59.49962,-101.3971 -3.95831,-2.53895 -63.4926,99.05526 -67.34818,96.36286 -3.85558,-2.6924 71.01864,-93.57455 67.27173,-96.41625 -3.74691,-2.84169 -71.06866,93.76834 -74.70111,90.78173 -3.63245,-2.9866 78.14149,-87.71403 74.62909,-90.84094 -3.5124,-3.12691 -78.20656,87.90329 -81.59349,84.64089 -3.38693,-3.26239 84.78257,-81.31273 81.52633,-84.70558 -3.25624,-3.39285 -84.86228,81.4963 -87.982807,77.97822 -3.120524,-3.51807 90.900937,-74.4101 87.920937,-78.04798 -2.98,-3.63787 -90.99481,74.58686 -93.82969,70.8348 -2.83488,-3.75207 96.45887,-67.04873 93.77348,-70.90919 -2.68539,-3.86047 -96.566321,67.21756 -99.098078,63.25464 -2.531757,-3.96292 101.422098,-59.27396 99.047878,-63.33322 -2.37423,-4.05926 -101.542468,59.43384 -103.755494,55.2845 C 81.105151,167.51823 189.0782,120.53382 187.02979,116.3008 184.98137,112.06777 81.137218,167.5845 79.256568,163.27431 77.375918,158.96413 188.70248,120.59603 186.9925,116.21533 185.28251,111.83464 77.402687,159.03271 75.866008,154.58826 74.329328,150.14381 188.32303,120.62856 186.96203,116.12721 185.60102,111.62586 74.350634,150.21427 73.167399,145.66296 71.984164,141.11164 187.94221,120.63123 186.93857,116.03697 185.93493,111.4427 71.999876,141.18356 71.177381,136.55344 70.354885,131.92332 187.56234,120.604 186.92226,115.94516 186.28217,111.28632 70.364906,131.99625 69.908221,127.31587 69.451537,122.63549 187.18578,120.54706 186.9132,115.85236 c -0.27258,-4.6947 -117.457396,6.85663 -117.545455,2.15484 -0.08806,-4.70178 117.447115,2.45355 117.543715,-2.24807 0.0966,-4.70162 -117.633285,-2.38011 -117.352175,-7.07431 0.281111,-4.6942 116.892555,11.66078 117.357745,6.98123 C 187.38222,110.98651 69.833114,104.06388 70.481661,99.406208 71.130207,94.748536 186.09898,120.20232 186.92989,115.5737 187.7608,110.94508 71.1172,94.820995 72.129184,90.228565 73.141169,85.636135 185.75845,120.0318 186.94996,115.48264 188.14146,110.93348 73.122516,85.707351 74.491699,81.208478 75.860881,76.709604 185.43235,119.83509 186.9771,115.39344 188.52186,110.95179 75.836698,76.779137 77.554638,72.401556 79.272577,68.023976 185.12269,119.6134 187.01117,115.30664 188.89965,110.99988 79.243014,68.091397 81.299118,63.862099 83.355223,59.632802 184.83138,119.3681 187.05194,115.22278 189.2725,111.07747 83.320461,59.697695 85.702054,55.642755 c 2.381593,-4.05494 98.858156,63.457935 101.397106,59.499625 2.53895,-3.95831 -99.055259,-63.492599 -96.362861,-67.348181 2.692398,-3.855582 93.574551,71.018641 96.416241,67.271731 2.8417,-3.74691 -93.768328,-71.068657 -90.781724,-74.70111 2.986604,-3.632454 87.714034,78.14149 90.840944,74.62909 3.12691,-3.5124 -87.903291,-78.206559 -84.64089,-81.593488 3.26239,-3.38693 81.31273,84.782568 84.70558,81.526328 3.39285,-3.25624 -81.4963,-84.862283 -77.97823,-87.982807 3.51808,-3.120525 74.41011,90.900937 78.04799,87.920937 3.63787,-2.98 -74.58686,-90.994811 -70.8348,-93.829691 3.75207,-2.834879 67.04872,96.458861 70.90919,93.773481 3.86047,-2.68539 -67.21756,-96.566322 -63.25464,-99.098079 3.96292,-2.531757 59.27396,101.422099 63.33322,99.047879 C 191.55844,112.38424 128.06533,13.216001 132.21468,11.002976 136.36402,8.7899499 183.34843,116.763 187.58145,114.71459 191.81448,112.66617 136.29775,8.8220173 140.60793,6.9413672 144.91812,5.0607171 183.28622,116.38728 187.66691,114.6773 192.04761,112.96731 144.84954,5.0874864 149.29399,3.5508068 153.73844,2.0141272 183.25368,116.00783 187.75504,114.64683 192.25639,113.28582 153.66797,2.0354334 158.21929,0.85219844 162.77061,-0.33103649 183.25102,115.627 187.84528,114.62337 192.43954,113.61973 162.69868,-0.31532485 167.32881,-1.1378201 171.95893,-1.9603153 183.27825,115.24714 187.93709,114.60706 192.59593,113.96697 171.88599,-1.9502951 176.56638,-2.4069797 181.24676,-2.8636643 183.33519,114.87058 188.02989,114.598 c 4.6947,-0.27258 -6.85663,-117.4573971 -2.15484,-117.5454555 4.70178,-0.088058 -2.45355,117.4471155 2.24807,117.5437155 4.70161,0.0966 2.38011,-117.6332861 7.07431,-117.3521753 4.69419,0.2811108 -11.66078,116.8925553 -6.98123,117.3577453 4.67954,0.46519 11.60217,-117.0839169 16.25984,-116.4353701 4.65767,0.6485468 -20.79611,115.6173201 -16.16749,116.4482301 4.62862,0.83091 20.7527,-115.8126909 25.34513,-114.80070659 C 218.24611,0.82596772 183.85045,113.44325 188.39961,114.63476 192.94877,115.82626 218.1749,0.80731511 222.67377,2.1764977 227.17264,3.5456803 184.04716,113.11715 188.48881,114.6619 192.93046,116.20666 227.10311,3.5214977 231.48069,5.2394371 235.85827,6.9573765 184.26885,112.80749 188.57561,114.69597 c 4.30676,1.88847 47.21524,-107.768157 51.44454,-105.7120525 4.2293,2.0561045 -55.506,103.5322525 -51.36068,105.7528225 4.14531,2.22056 55.52508,-103.73148 59.58002,-101.349887 4.05494,2.381593 -63.45793,98.858147 -59.49962,101.397107 3.95831,2.53895 63.4926,-99.05526 67.34818,-96.362862 3.85558,2.692399 -71.01864,93.574552 -67.27173,96.416242 3.7469,2.84169 71.06865,-93.768329 74.70111,-90.781725 3.63245,2.986604 -78.14149,87.714035 -74.62909,90.840945 3.5124,3.12691 78.20656,-87.903292 81.59349,-84.640895 3.38693,3.262396 -84.78257,81.312735 -81.52633,84.705585 3.25624,3.39285 84.86228,-81.496303 87.98281,-77.978228 3.12052,3.518075 -90.90094,74.410108 -87.92094,78.047978 2.98,3.63788 90.99481,-74.586852 93.82969,-70.834789 2.83488,3.752064 -96.45887,67.048719 -93.77348,70.909189 2.68539,3.86047 96.56632,-67.21756 99.09808,-63.25464 2.53175,3.962919 -101.4221,59.27396 -99.04788,63.33322 2.37422,4.05926 101.54247,-59.433848 103.75549,-55.284505 2.21303,4.149342 -105.76003,51.133745 -103.71161,55.366775 2.04842,4.23303 105.89257,-51.2837 107.77322,-46.973516 1.88065,4.310183 -109.44591,42.678286 -107.73593,47.058976 1.70998,4.3807 109.58981,-42.817372 111.12649,-38.372921 1.53668,4.444451 -112.45703,33.959691 -111.09602,38.461051 1.36101,4.50135 112.61139,-34.087068 113.79463,-29.535751 1.18323,4.551316 -114.77481,25.031731 -113.77117,29.625991 1.00364,4.59426 114.93869,-25.146597 115.76119,-20.516475 0.82249,4.630121 -116.38496,15.949435 -115.74488,20.608285 0.64008,4.65884 116.55735,-16.051096 117.01404,-11.37072 0.45668,4.68039 -117.27757,6.76882 -117.00498,11.46352 0.27258,4.6947 117.4574,-6.85663 117.54545,-2.15485 0.0881,4.70179 -117.44711,-2.45354 -117.54371,2.24808 -0.0966,4.70161 117.63328,2.38011 117.35217,7.0743 -0.28111,4.6942 -116.89255,-11.66077 -117.35774,-6.98123 -0.46519,4.67955 117.08391,11.60218 116.43537,16.25985 -0.64855,4.65767 -115.61733,-20.79611 -116.44823,-16.16749 -0.83091,4.62862 115.81269,20.7527 114.8007,25.34513 -1.01198,4.59243 -113.62927,-29.80323 -114.82077,-25.25407 -1.1915,4.54915 113.82744,29.77529 112.45826,34.27416 -1.36918,4.49887 -110.94065,-38.62661 -112.48541,-34.18496 -1.54475,4.44165 111.14041,38.6143 109.42247,42.99188 -1.71794,4.37758 -107.56805,-47.21184 -109.45653,-42.90508 -1.88848,4.30676 107.76815,47.21524 105.71205,51.44454 -2.0561,4.2293 -103.53226,-55.506 -105.75282,-51.36068 -2.22056,4.14531 103.73148,55.52508 101.34988,59.58002 -2.38159,4.05494 -98.85815,-63.45793 -101.3971,-59.49962 -2.53895,3.95831 99.05526,63.4926 96.36286,67.34818 -2.6924,3.85558 -93.57455,-71.01864 -96.41624,-67.27173 -2.8417,3.7469 93.76833,71.06865 90.78172,74.70111 z"
       transform="translate(0.36601475,4.2807443)" />
  </g>
</svg>
